<svg width="34" height="34" viewBox="0 0 34 34" fill="none" xmlns="http://www.w3.org/2000/svg">
<path d="M20.2009 1.46052C20.538 1.70984 20.8459 1.98796 21.1502 2.27594C21.2062 2.32707 21.2623 2.37819 21.3201 2.43086C22.1744 3.23944 22.7843 4.24337 23.3571 5.26177C23.4063 5.3481 23.4556 5.4344 23.5049 5.52065C23.5603 5.61742 23.5603 5.61742 23.6167 5.71614C23.6935 5.71461 23.6935 5.71461 23.7718 5.71305C25.8613 5.67712 27.9751 5.79576 29.7547 7.01838C30.033 7.17525 30.1241 7.14489 30.4322 7.07924C31.2086 7.01943 31.838 7.15386 32.4439 7.65987C32.8958 8.12233 33.0938 8.66471 33.1178 9.30238C33.106 9.94924 32.8902 10.5012 32.4444 10.9738C32.2107 11.1685 32.2107 11.1685 32.055 11.1685C32.0665 11.2212 32.078 11.2738 32.0899 11.328C32.3052 12.9824 31.452 14.9384 30.5892 16.3073C30.5479 16.373 30.5479 16.373 30.5058 16.44C30.4525 16.5236 30.3981 16.6065 30.3425 16.6885C30.2583 16.814 30.2583 16.814 30.1726 17.0104C30.241 17.2321 30.3479 17.4233 30.4672 17.6214C31.331 19.0784 31.9815 20.5933 32.0996 22.3005C32.1027 22.3456 32.1059 22.3908 32.1092 22.4373C32.1209 22.6414 32.1203 22.7861 32.055 22.982C32.0924 22.9983 32.1299 23.0145 32.1685 23.0312C32.5752 23.2557 32.84 23.6491 32.9961 24.0774C33.1684 24.6805 33.1539 25.2604 32.8988 25.838C32.5702 26.4031 32.094 26.8265 31.471 27.0292C31.0489 27.1203 30.6147 27.1185 30.1969 27.0105C29.8816 27.0046 29.714 27.1581 29.4588 27.3327C28.0277 28.2726 26.2441 28.4272 24.5823 28.4709C24.482 28.4737 24.3818 28.4766 24.2816 28.4794C24.0383 28.4863 23.7951 28.4929 23.5518 28.4993C23.5179 28.5669 23.4841 28.6345 23.4491 28.7042C22.4358 30.6912 20.9471 32.6042 18.8134 33.4324C18.7413 33.4606 18.6692 33.4888 18.5949 33.5179C17.2981 33.9399 15.8467 33.7752 14.639 33.185C13.9607 32.8356 13.3949 32.3989 12.8418 31.8746C12.781 31.8187 12.7201 31.7628 12.6574 31.7052C11.695 30.801 11.0239 29.6734 10.4401 28.4993C10.3535 28.4979 10.3535 28.4979 10.2651 28.4965C8.03058 28.4557 8.03058 28.4557 6.93503 28.2397C6.88872 28.2307 6.8424 28.2218 6.79469 28.2126C5.86945 28.0268 5.03682 27.6585 4.23825 27.1611C3.97983 27.0154 3.84177 26.9942 3.55974 27.0713C2.91542 27.1252 2.35729 27.0705 1.82468 26.6826C1.27872 26.2157 0.945038 25.7421 0.884259 25.0203C0.861315 24.3406 1.0267 23.814 1.48264 23.3066C1.56636 23.2429 1.56636 23.2429 1.65176 23.178C1.88888 22.879 1.87435 22.5752 1.9005 22.2031C2.05946 20.5181 2.66875 19.0287 3.54123 17.5885C3.59078 17.504 3.64024 17.4195 3.68956 17.3349C3.72295 17.2791 3.75633 17.2233 3.79073 17.1658C3.83616 16.9193 3.70084 16.7643 3.56786 16.5682C3.51253 16.4814 3.45752 16.3944 3.40279 16.3073C3.37465 16.2626 3.3465 16.218 3.3175 16.172C2.49071 14.8135 2.00269 13.3135 1.8884 11.7321C1.86627 11.3316 1.86627 11.3316 1.65379 11.0111C1.59731 10.9774 1.54083 10.9436 1.48264 10.9089C0.9961 10.2722 0.824807 9.69474 0.898458 8.8967C1.02323 8.32888 1.30116 7.83173 1.77017 7.48036C2.35694 7.11118 2.8743 7.04261 3.55974 7.07924C3.67621 7.10936 3.67621 7.10936 3.79504 7.14009C4.1077 7.14588 4.26749 6.99531 4.5207 6.82213C6.25504 5.71538 8.38936 5.67656 10.3752 5.71614C10.4365 5.60318 10.4365 5.60318 10.499 5.48794C11.129 4.33432 11.8185 3.25123 12.7769 2.34085C12.8294 2.28772 12.882 2.23459 12.9361 2.17985C14.955 0.182625 17.8416 -0.127121 20.2009 1.46052ZM13.9452 2.86013C13.896 2.90079 13.8467 2.94146 13.7959 2.98335C13.0507 3.61401 12.5071 4.43078 12.002 5.25772C11.9759 5.29999 11.9498 5.34227 11.9229 5.38582C11.774 5.63065 11.774 5.63065 11.7383 5.91087C11.7832 5.91798 11.828 5.92509 11.8743 5.93242C13.4064 6.17977 14.9449 6.4914 16.3875 7.07959C16.9967 7.31544 17.4963 7.12152 18.0873 6.90885C19.4449 6.44002 20.8353 6.12878 22.2536 5.91087C22.2184 5.58969 22.0712 5.36542 21.9007 5.0995C21.8717 5.05389 21.8428 5.00828 21.813 4.96128C21.5299 4.52178 21.2216 4.10823 20.8905 3.70395C20.8448 3.64739 20.799 3.59082 20.7519 3.53255C19.993 2.64041 18.8376 1.77867 17.6451 1.62685C16.1992 1.5136 15.0465 1.90461 13.9452 2.86013Z" fill="#8A8A8A"/>
<path d="M14.3261 13.1421C14.5442 13.2028 14.6408 13.3368 14.7891 13.5052C14.8751 13.6705 14.949 13.8281 15.0188 13.9999C15.0498 14.0735 15.0498 14.0735 15.0815 14.1486C15.1498 14.3111 15.2169 14.474 15.284 14.637C15.3319 14.7518 15.3799 14.8665 15.428 14.9812C15.5569 15.2895 15.6847 15.5982 15.8122 15.9071C15.8937 16.1042 15.9753 16.3013 16.0571 16.4984C16.3463 17.1953 16.6354 17.8923 16.9212 18.5906C17.0329 18.8634 17.146 19.1354 17.2627 19.4061C17.284 19.4562 17.3054 19.5063 17.3274 19.558C17.367 19.6507 17.4072 19.7433 17.448 19.8356C17.5577 20.0941 17.6082 20.2998 17.5802 20.5803C17.4332 20.881 17.4332 20.881 17.2556 20.9698C16.8867 21.006 16.8867 21.006 16.7364 20.9698C16.4813 20.7476 16.3484 20.5475 16.2239 20.2347C16.1772 20.1185 16.1772 20.1185 16.1295 20C16.1139 19.9601 16.0983 19.9202 16.0823 19.8791C16.0343 19.7561 15.9851 19.6336 15.9358 19.5112C15.6978 18.9139 15.6978 18.9139 15.6978 18.7628C14.7339 18.7843 13.77 18.8057 12.7769 18.8277C12.5341 19.4351 12.5341 19.4351 12.2934 20.0433C12.2472 20.157 12.2472 20.157 12.2001 20.273C12.1691 20.3505 12.1382 20.428 12.1063 20.5078C11.9879 20.7289 11.8836 20.8353 11.6734 20.9698C11.388 21.0156 11.2686 21.0035 11.0284 20.8399C10.8605 20.5957 10.8573 20.4107 10.8945 20.1259C10.9568 19.9106 11.0432 19.7085 11.1329 19.5032C11.1582 19.4432 11.1835 19.3832 11.2096 19.3213C11.293 19.124 11.3777 18.9272 11.4625 18.7304C11.521 18.5927 11.5794 18.455 11.6377 18.3172C11.7598 18.029 11.8822 17.7409 12.005 17.453C12.1921 17.013 12.3759 16.5717 12.5588 16.1299C12.6029 16.0236 12.6029 16.0236 12.6479 15.9151C12.7622 15.6393 12.8764 15.3635 12.9905 15.0877C13.0692 14.8975 13.1482 14.7074 13.2272 14.5174C13.2501 14.4618 13.2731 14.4062 13.2967 14.3489C13.7889 13.1674 13.7889 13.1674 14.3261 13.1421ZM14.2049 15.3226C14.102 15.5579 13.9993 15.7932 13.8966 16.0285C13.8678 16.0943 13.839 16.1601 13.8094 16.2278C13.4653 16.8898 13.4653 16.8898 13.2962 17.5945C13.9174 17.5945 14.5385 17.5945 15.1785 17.5945C14.897 16.8272 14.5915 16.0739 14.2698 15.3226C14.2484 15.3226 14.227 15.3226 14.2049 15.3226Z" fill="#8A8A8A"/>
<path d="M19.2819 13.1354C19.3657 13.135 19.4495 13.1345 19.5358 13.134C19.7128 13.1333 19.8897 13.1337 20.0668 13.1349C20.2931 13.1364 20.5194 13.1347 20.7457 13.132C20.9623 13.13 21.1789 13.1308 21.3955 13.1314C21.4766 13.1304 21.5577 13.1294 21.6412 13.1284C22.1876 13.1357 22.1876 13.1357 22.3778 13.2657C22.4994 13.4058 22.5716 13.5314 22.6024 13.7151C22.5666 13.902 22.5351 14.0586 22.4239 14.2153C21.9671 14.514 21.4405 14.3492 20.8904 14.3492C20.8904 16.1485 20.8904 17.9478 20.8904 19.8016C21.2974 19.8016 21.7044 19.8016 22.1237 19.8016C22.5175 20.0378 22.5175 20.0378 22.5781 20.2559C22.5693 20.5017 22.5555 20.6556 22.4033 20.8522C22.2152 21.0001 22.1152 21.0031 21.8777 21.0046C21.7643 21.0061 21.7643 21.0061 21.6486 21.0077C21.5672 21.0074 21.4857 21.007 21.4019 21.0067C21.318 21.0071 21.2341 21.0075 21.1477 21.0079C20.9703 21.0086 20.793 21.0083 20.6156 21.0074C20.3887 21.0062 20.1619 21.0078 19.9351 21.0101C19.7181 21.0118 19.5012 21.0112 19.2842 21.0108C19.2029 21.0116 19.1216 21.0125 19.0379 21.0134C18.4114 21.0067 18.4114 21.0067 18.2104 20.8136C18.0375 20.5517 18.0552 20.4354 18.0993 20.1261C18.2207 19.9683 18.3123 19.8898 18.4888 19.8016C18.8958 19.8016 19.3028 19.8016 19.7221 19.8016C19.7221 18.0023 19.7221 16.203 19.7221 14.3492C19.3151 14.3492 18.9081 14.3492 18.4888 14.3492C18.1643 14.1545 18.1643 14.1545 18.0993 14.0246C18.0549 13.5729 18.0549 13.5729 18.2101 13.3371C18.4939 13.0656 18.9154 13.1334 19.2819 13.1354Z" fill="#8A8A8A"/>
</svg> 