<?xml version="1.0" encoding="UTF-8"?>
<svg width="33" height="34" viewBox="0 0 33 34" fill="none" xmlns="http://www.w3.org/2000/svg">
<path d="M19.6718 1.46052C20.009 1.70984 20.3169 1.98796 20.6211 2.27594C20.6772 2.32707 20.7332 2.37819 20.791 2.43086C21.6454 3.23944 22.2553 4.24337 22.828 5.26177C22.8773 5.3481 22.9265 5.4344 22.9759 5.52065C23.0312 5.61742 23.0312 5.61742 23.0877 5.71614C23.1644 5.71461 23.1644 5.71461 23.2427 5.71305C25.3322 5.67712 27.4461 5.79576 29.2257 7.01838C29.504 7.17525 29.5951 7.14489 29.9032 7.07924C30.6796 7.01943 31.3089 7.15386 31.9149 7.65987C32.3668 8.12233 32.5648 8.66471 32.5888 9.30238C32.5769 9.94924 32.3612 10.5012 31.9154 10.9738C31.6817 11.1685 31.6817 11.1685 31.5259 11.1685C31.5374 11.2212 31.549 11.2738 31.5609 11.328C31.7761 12.9824 30.923 14.9384 30.0601 16.3073C30.0189 16.373 30.0189 16.373 29.9768 16.44C29.9235 16.5236 29.8691 16.6065 29.8135 16.6885C29.7292 16.814 29.7292 16.814 29.6435 17.0104C29.712 17.2321 29.8188 17.4233 29.9382 17.6214C30.802 19.0784 31.4524 20.5933 31.5705 22.3005C31.5737 22.3456 31.5768 22.3908 31.5801 22.4373C31.5918 22.6414 31.5912 22.7861 31.5259 22.982C31.5634 22.9983 31.6009 23.0145 31.6395 23.0312C32.0461 23.2557 32.311 23.6491 32.4671 24.0774C32.6393 24.6805 32.6248 25.2604 32.3697 25.838C32.0411 26.4031 31.5649 26.8265 30.942 27.0292C30.5199 27.1203 30.0856 27.1185 29.6679 27.0105C29.3526 27.0046 29.185 27.1581 28.9298 27.3327C27.4986 28.2726 25.7151 28.4272 24.0532 28.4709C23.953 28.4737 23.8527 28.4766 23.7525 28.4794C23.5093 28.4863 23.266 28.4929 23.0228 28.4993C22.9889 28.5669 22.955 28.6345 22.9201 28.7042C21.9067 30.6912 20.418 32.6042 18.2844 33.4324C18.2123 33.4606 18.1401 33.4888 18.0658 33.5179C16.769 33.9399 15.3177 33.7752 14.1099 33.185C13.4317 32.8356 12.8658 32.3989 12.3127 31.8746C12.2519 31.8187 12.1911 31.7628 12.1284 31.7052C11.1659 30.801 10.4949 29.6734 9.91108 28.4993C9.82446 28.4979 9.82446 28.4979 9.73608 28.4965C7.50153 28.4557 7.50153 28.4557 6.40598 28.2397C6.35966 28.2307 6.31335 28.2218 6.26564 28.2126C5.3404 28.0268 4.50776 27.6585 3.7092 27.1611C3.45077 27.0154 3.31271 26.9942 3.03069 27.0713C2.38636 27.1252 1.82823 27.0705 1.29563 26.6826C0.749669 26.2157 0.415986 25.7421 0.355206 25.0203C0.332263 24.3406 0.497651 23.814 0.953589 23.3066C1.0373 23.2429 1.0373 23.2429 1.12271 23.178C1.35982 22.879 1.34529 22.5752 1.37144 22.2031C1.5304 20.5181 2.13969 19.0287 3.01218 17.5885C3.06173 17.504 3.11119 17.4195 3.16051 17.3349C3.19389 17.2791 3.22728 17.2233 3.26168 17.1658C3.30711 16.9193 3.17178 16.7643 3.0388 16.5682C2.98348 16.4814 2.92846 16.3944 2.87374 16.3073C2.8456 16.2626 2.81745 16.218 2.78845 16.172C1.96166 14.8135 1.47364 13.3135 1.35935 11.7321C1.33721 11.3316 1.33721 11.3316 1.12474 11.0111C1.06826 10.9774 1.01178 10.9436 0.953589 10.9089C0.467047 10.2722 0.295754 9.69474 0.369405 8.8967C0.494175 8.32888 0.77211 7.83173 1.24112 7.48036C1.82788 7.11118 2.34525 7.04261 3.03069 7.07924C3.14716 7.10936 3.14716 7.10936 3.26599 7.14009C3.57865 7.14588 3.73844 6.99531 3.99165 6.82213C5.72599 5.71538 7.86031 5.67656 9.84617 5.71614C9.90742 5.60318 9.90742 5.60318 9.96991 5.48794C10.5999 4.33432 11.2894 3.25123 12.2478 2.34085C12.3004 2.28772 12.3529 2.23459 12.4071 2.17985C14.4259 0.182625 17.3125 -0.127121 19.6718 1.46052ZM13.4162 2.86013C13.3669 2.90079 13.3176 2.94146 13.2668 2.98335C12.5216 3.61401 11.9781 4.43078 11.473 5.25772C11.4469 5.29999 11.4208 5.34227 11.3939 5.38582C11.245 5.63065 11.245 5.63065 11.2093 5.91087C11.2541 5.91798 11.299 5.92509 11.3452 5.93242C12.8773 6.17977 14.4158 6.4914 15.8584 7.07959C16.4677 7.31544 16.9672 7.12152 17.5582 6.90885C18.9158 6.44002 20.3062 6.12878 21.7246 5.91087C21.6894 5.58969 21.5421 5.36542 21.3716 5.0995C21.3427 5.05389 21.3138 5.00828 21.2839 4.96128C21.0009 4.52178 20.6925 4.10823 20.3615 3.70395C20.3157 3.64739 20.27 3.59082 20.2228 3.53255C19.4639 2.64041 18.3085 1.77867 17.116 1.62685C15.6702 1.5136 14.5174 1.90461 13.4162 2.86013ZM4.4587 7.92306C4.52723 8.13551 4.5984 8.33342 4.69399 8.53564C4.88186 9.03758 4.86225 9.65894 4.67776 10.1584C4.36398 10.8154 3.9542 11.1622 3.28627 11.4484C3.02984 11.5085 2.77356 11.5358 2.51141 11.558C2.65766 13.0183 3.113 14.3273 3.80631 15.6158C3.82728 15.6548 3.84826 15.6939 3.86987 15.7341C3.94572 15.8518 4.03208 15.9413 4.13415 16.0367C4.18209 15.9802 4.23004 15.9236 4.27943 15.8653C4.92923 15.1011 5.60226 14.3678 6.30861 13.6554C6.36483 13.5983 6.42106 13.5412 6.47898 13.4824C6.89989 13.061 7.34016 12.6276 7.84874 12.3121C8.01172 12.1633 8.02111 12.0371 8.05838 11.8214C8.07275 11.7429 8.08713 11.6643 8.10194 11.5834C8.10914 11.5416 8.11635 11.4998 8.12377 11.4568C8.16236 11.2347 8.2051 11.0134 8.24778 10.792C8.25642 10.747 8.26505 10.702 8.27395 10.6556C8.52533 9.36335 8.94426 8.12003 9.39181 6.88451C7.6085 6.83416 6.03472 7.06823 4.4587 7.92306ZM23.542 6.88451C23.5613 6.93988 23.5805 6.99525 23.6004 7.0523C23.9353 8.0211 24.2641 8.98848 24.5116 9.98393C24.53 10.0578 24.5484 10.1316 24.5674 10.2077C24.6497 10.5503 24.7207 10.8904 24.7705 11.2393C24.8535 11.9722 24.8535 11.9722 25.2905 12.5357C25.4212 12.6216 25.5524 12.7068 25.6841 12.7913C25.816 12.904 25.9433 13.0172 26.0695 13.1361C26.1034 13.1676 26.1373 13.1992 26.1722 13.2317C26.9617 13.972 27.7497 14.7229 28.4103 15.5824C28.5385 15.7352 28.669 15.8859 28.7997 16.0367C29.7621 14.9216 30.4349 13.0277 30.3575 11.558C30.3096 11.5531 30.2616 11.5483 30.2122 11.5433C29.6059 11.4647 29.0638 11.2822 28.6415 10.8196C28.1691 10.2039 28.092 9.59199 28.1506 8.83179C28.202 8.64833 28.2646 8.48709 28.3471 8.31581C28.409 8.18537 28.445 8.06383 28.4752 7.92306C26.8991 7.06823 25.3254 6.83416 23.542 6.88451ZM10.6251 7.01433C10.3757 7.46607 10.2159 7.94268 10.0551 8.43089C10.0091 8.57022 9.96229 8.70925 9.91539 8.84827C9.52185 9.92239 9.52185 9.92239 9.39181 11.0387C9.68062 10.8787 9.95618 10.7084 10.2288 10.5223C11.6553 9.5479 13.188 8.66588 14.7793 7.98797C14.7264 7.84608 14.7264 7.84608 14.5838 7.80685C14.5265 7.79056 14.4692 7.77427 14.4101 7.75749C14.3454 7.73905 14.2807 7.72061 14.2141 7.70161C14.1435 7.68231 14.073 7.66302 14.0004 7.64314C13.8918 7.61319 13.8918 7.61319 13.7811 7.58263C12.7552 7.30593 11.6927 7.03767 10.6251 7.01433ZM21.0552 7.1482C20.9791 7.16237 20.903 7.17654 20.8246 7.19113C19.4487 7.42971 19.4487 7.42971 18.1546 7.92306C18.2929 8.06137 18.4013 8.11525 18.578 8.19664C18.6383 8.22474 18.6985 8.25285 18.7606 8.2818C18.8257 8.31202 18.8908 8.34224 18.9578 8.37337C20.5473 9.12394 22.0416 10.0255 23.4771 11.0387C23.5975 10.6851 23.4518 10.3485 23.3595 10.0002C23.3294 9.88526 23.3294 9.88526 23.2987 9.76803C22.9387 8.32954 22.9387 8.32954 22.3088 7.01433C21.8877 6.96767 21.4681 7.07082 21.0552 7.1482ZM1.68052 8.78514C1.5107 9.02854 1.51423 9.2585 1.53777 9.54579C1.66104 9.92334 1.83028 10.135 2.18687 10.3247C2.48271 10.4233 2.75029 10.4503 3.04109 10.3331C3.35194 10.1559 3.56833 9.95613 3.67978 9.6107C3.74061 9.2892 3.7077 9.03426 3.54996 8.7466C3.36209 8.48071 3.14592 8.34166 2.83596 8.2476C2.30223 8.18319 2.00839 8.39272 1.68052 8.78514ZM29.4234 8.67433C29.2285 8.96883 29.1954 9.26582 29.2541 9.6107C29.3645 9.9559 29.5822 10.1572 29.8935 10.3326C30.195 10.4559 30.4469 10.4255 30.7551 10.3206C31.0484 10.123 31.2832 9.88457 31.3961 9.54579C31.4219 9.2038 31.3912 8.98975 31.2014 8.70197C30.9231 8.42039 30.7172 8.26438 30.3129 8.22326C29.9435 8.22939 29.6652 8.40072 29.4234 8.67433ZM16.0516 8.65481C15.9796 8.68659 15.9077 8.71838 15.8335 8.75113C15.756 8.78578 15.6786 8.82043 15.5988 8.85613C15.5592 8.87383 15.5196 8.89153 15.4788 8.90976C13.392 9.84408 11.4181 10.9719 9.59465 12.3572C9.5491 12.3918 9.50354 12.4264 9.45661 12.462C9.1239 12.7127 9.1239 12.7127 8.97077 13.0935C8.9637 13.1621 8.95664 13.2306 8.94936 13.3012C8.93725 13.4162 8.93725 13.4162 8.92489 13.5335C8.91698 13.6139 8.90908 13.6943 8.90093 13.7771C8.89277 13.8542 8.88461 13.9313 8.87621 14.0107C8.77398 15.0057 8.72754 15.9945 8.72649 16.9941C8.72638 17.0495 8.72627 17.1048 8.72616 17.1618C8.72606 17.999 8.76062 18.8294 8.83196 19.6635C8.83811 19.7365 8.83811 19.7365 8.84438 19.8108C8.86916 20.7134 8.86916 20.7134 9.19049 21.5185C9.24354 21.557 9.29658 21.5955 9.35124 21.6352C9.44725 21.7062 9.44725 21.7062 9.54521 21.7787C9.62388 21.8336 9.70257 21.8886 9.78126 21.9435C9.87962 22.0146 9.97791 22.0857 10.0761 22.157C10.7319 22.6281 11.4025 23.0688 12.0984 23.4782C12.1987 23.5373 12.2989 23.5969 12.3988 23.6568C13.1322 24.0964 13.8842 24.4883 14.6535 24.8603C14.696 24.8809 14.7385 24.9015 14.7823 24.9227C14.9856 25.0209 15.1894 25.1179 15.3944 25.2125C15.5428 25.2815 15.6902 25.3526 15.8363 25.4263C16.2529 25.63 16.2529 25.63 16.6982 25.586C16.7953 25.5426 16.8913 25.4966 16.9862 25.4486C17.0998 25.4 17.2133 25.3515 17.327 25.3031C17.4516 25.2466 17.576 25.1896 17.7002 25.1322C17.7676 25.101 17.8351 25.0699 17.9046 25.0378C21.2482 23.5764 21.2482 23.5764 23.9315 21.2295C23.9664 21.0519 23.9664 21.0519 23.9845 20.8494C23.9966 20.7344 23.9966 20.7344 24.009 20.617C24.0169 20.5367 24.0248 20.4563 24.0329 20.3735C24.0411 20.2964 24.0492 20.2193 24.0576 20.1398C24.1599 19.1449 24.2063 18.156 24.2074 17.1564C24.2075 17.1011 24.2076 17.0458 24.2077 16.9888C24.2078 16.1515 24.1732 15.3212 24.1019 14.487C24.0978 14.4384 24.0937 14.3898 24.0895 14.3397C24.0647 13.4372 24.0647 13.4372 23.7434 12.632C23.6903 12.5935 23.6373 12.5551 23.5826 12.5154C23.4853 12.4436 23.4853 12.4436 23.3861 12.3704C23.3307 12.3316 23.3307 12.3316 23.2741 12.2921C23.1413 12.1992 23.011 12.1033 22.8805 12.0073C19.6017 9.55581 19.6017 9.55581 16.0516 8.65481ZM7.27008 14.3179C7.23266 14.3551 7.19524 14.3923 7.15668 14.4306C7.07693 14.5101 6.99726 14.5896 6.91768 14.6692C6.79809 14.7886 6.67799 14.9076 6.55785 15.0265C6.15702 15.4254 5.7757 15.8272 5.4249 16.2715C5.26106 16.4786 5.08793 16.677 4.91433 16.876C4.83176 17.0091 4.83176 17.0091 4.87909 17.1622C5.00865 17.3885 5.16647 17.5744 5.33903 17.769C5.3707 17.8054 5.40237 17.8419 5.435 17.8794C5.54154 18.0015 5.64913 18.1226 5.75688 18.2436C5.82245 18.3179 5.82245 18.3179 5.88933 18.3938C6.25386 18.8037 6.6339 19.1954 7.02262 19.5824C7.08135 19.6414 7.14009 19.7004 7.20061 19.7612C7.2842 19.8446 7.2842 19.8446 7.36947 19.9298C7.4198 19.98 7.47013 20.0303 7.52199 20.0821C7.62051 20.1983 7.62051 20.1983 7.70416 20.1909C7.69714 20.0765 7.69714 20.0765 7.68996 19.9597C7.58205 17.9689 7.58197 15.9497 7.70416 13.9596C7.55127 13.9596 7.37864 14.2096 7.27008 14.3179ZM25.2297 13.9596C25.2317 13.9958 25.2336 14.032 25.2357 14.0692C25.341 16.105 25.3404 18.1554 25.2297 20.1909C25.615 19.8709 25.9711 19.5269 26.325 19.1727C26.3828 19.1148 26.4406 19.057 26.5002 18.9974C26.8825 18.6115 27.2376 18.2219 27.5664 17.7893C27.6649 17.666 27.7636 17.543 27.8626 17.4201C27.937 17.3268 28.0114 17.2335 28.0857 17.1402C27.9896 16.8358 27.811 16.6245 27.6029 16.3897C27.5504 16.3296 27.5504 16.3296 27.4969 16.2683C27.3908 16.1474 27.284 16.0271 27.177 15.9069C27.1212 15.8437 27.0654 15.7806 27.0079 15.7155C26.6306 15.2961 26.2362 14.8948 25.8382 14.4951C25.7858 14.4424 25.7334 14.3897 25.6795 14.3355C25.6306 14.2867 25.5818 14.238 25.5314 14.1878C25.4874 14.1438 25.4433 14.0998 25.3979 14.0545C25.31 13.9523 25.31 13.9523 25.2297 13.9596ZM4.06924 18.1138C3.2873 19.4472 2.51141 21.0024 2.51141 22.5926C2.56404 22.5974 2.61667 22.6023 2.6709 22.6073C3.30109 22.6821 3.85251 22.8504 4.29237 23.3309C4.76476 23.9467 4.8419 24.5586 4.78324 25.3188C4.73183 25.5022 4.66928 25.6635 4.58674 25.8347C4.52487 25.9652 4.48888 26.0867 4.4587 26.2275C6.03472 27.0823 7.6085 27.3164 9.39181 27.2661C9.35998 27.1752 9.35998 27.1752 9.32752 27.0824C8.95853 26.024 8.59938 24.9682 8.3492 23.8745C8.33089 23.7945 8.31258 23.7145 8.29372 23.6321C8.22167 23.3061 8.15484 22.9825 8.11314 22.6511C8.05674 22.2062 8.00344 21.927 7.64331 21.6311C7.51261 21.5398 7.38143 21.4492 7.2498 21.3593C6.73384 20.9224 6.25695 20.4394 5.77717 19.9637C5.72011 19.9075 5.66306 19.8513 5.60428 19.7934C5.21578 19.4054 4.86547 18.9975 4.5236 18.5682C4.39625 18.4141 4.26702 18.2633 4.13415 18.1138C4.11273 18.1138 4.09131 18.1138 4.06924 18.1138ZM28.7997 18.1138C28.7471 18.1751 28.6944 18.2363 28.6402 18.2994C26.3381 20.9723 26.3381 20.9723 25.1295 21.7965C24.9363 21.9746 24.9139 22.0723 24.8714 22.3286C24.8576 22.406 24.8438 22.4833 24.8295 22.563C24.8156 22.6464 24.8018 22.7298 24.7875 22.8157C24.7555 22.9931 24.7221 23.1701 24.6884 23.3471C24.6798 23.3924 24.6712 23.4376 24.6624 23.4842C24.4127 24.7761 23.9956 26.0332 23.542 27.2661C25.2587 27.3134 26.9842 27.1471 28.4752 26.2275C28.4066 26.015 28.3355 25.8171 28.2399 25.6149C28.0449 25.0977 28.0662 24.4059 28.2743 23.8941C28.595 23.2929 29.0302 22.9631 29.6516 22.7021C29.8867 22.6459 30.1171 22.6175 30.3575 22.5926C30.3915 21.2209 29.8512 19.2158 28.888 18.1959C28.8589 18.1688 28.8297 18.1417 28.7997 18.1138ZM9.39181 23.1119C9.42979 23.6093 9.54519 24.0655 9.6839 24.5439C9.71786 24.6621 9.71786 24.6621 9.7525 24.7826C10.04 26.0381 10.04 26.0381 10.6251 27.1362C11.2196 27.1298 11.7983 27.0206 12.3776 26.8969C12.4588 26.8798 12.5399 26.8627 12.6235 26.8451C13.1353 26.7348 13.6425 26.6128 14.1464 26.4709C14.2036 26.455 14.2607 26.439 14.3196 26.4226C14.4525 26.3835 14.5837 26.3386 14.7144 26.2924C14.7465 26.2282 14.7465 26.2282 14.7793 26.1626C14.7304 26.1398 14.6816 26.1171 14.6312 26.0936C13.4991 25.5635 12.4068 24.9978 11.3391 24.3451C11.2883 24.3143 11.2376 24.2835 11.1852 24.2518C10.6474 23.9248 10.1246 23.581 9.61113 23.2168C9.47889 23.1058 9.47889 23.1058 9.39181 23.1119ZM23.4771 23.1119C23.4374 23.1389 23.3977 23.1659 23.3568 23.1938C21.7174 24.3069 20.0004 25.4177 18.1546 26.1626C18.2074 26.3045 18.2074 26.3045 18.3501 26.3437C18.4074 26.36 18.4647 26.3763 18.5237 26.3931C18.5884 26.4115 18.6531 26.43 18.7198 26.4489C18.7903 26.4682 18.8608 26.4875 18.9335 26.5074C19.0058 26.5274 19.0782 26.5474 19.1527 26.5679C20.1787 26.8446 21.2411 27.1129 22.3088 27.1362C22.5602 26.674 22.7249 26.1908 22.8889 25.692C22.9031 25.6492 22.9172 25.6064 22.9319 25.5623C23.1118 25.0176 23.2827 24.4713 23.4244 23.9151C23.4447 23.8369 23.4447 23.8369 23.4653 23.7571C23.5233 23.5167 23.5493 23.348 23.4771 23.1119ZM1.7041 24.2194C1.54727 24.5142 1.51522 24.7264 1.53777 25.0591C1.66019 25.412 1.88621 25.6283 2.18687 25.838C2.51141 25.9462 2.78965 25.9404 3.10371 25.8056C3.39512 25.644 3.56089 25.4342 3.67978 25.124C3.74642 24.7808 3.70449 24.4808 3.51041 24.1877C3.30818 23.9587 3.07027 23.7984 2.77004 23.732C2.33073 23.7061 1.97457 23.8796 1.7041 24.2194ZM29.4234 24.1877C29.2285 24.4822 29.1954 24.7792 29.2541 25.124C29.3645 25.4692 29.5822 25.6706 29.8935 25.8459C30.195 25.9692 30.4469 25.9388 30.7551 25.834C31.0484 25.6363 31.2832 25.3979 31.3961 25.0591C31.4219 24.717 31.3848 24.5063 31.2014 24.2153C30.924 23.8941 30.7235 23.7806 30.3048 23.7325C29.9409 23.7436 29.6614 23.9183 29.4234 24.1877ZM15.9147 27.0533C15.8462 27.0774 15.7778 27.1014 15.7072 27.1262C15.6339 27.1523 15.5607 27.1783 15.4852 27.2052C14.0882 27.6854 12.6685 28.0155 11.2093 28.2397C11.2445 28.5609 11.3917 28.7851 11.5622 29.0511C11.5912 29.0967 11.6202 29.1424 11.6501 29.1894C12.5857 30.6415 13.8526 32.0914 15.6127 32.4976C16.8767 32.6585 17.9994 32.436 19.0473 31.6809C19.2078 31.5545 19.3631 31.4239 19.5177 31.2904C19.5622 31.2545 19.6067 31.2186 19.6526 31.1817C20.0286 30.8715 20.3241 30.5069 20.6211 30.1221C20.6646 30.0658 20.7081 30.0096 20.753 29.9517C21.0099 29.6091 21.2423 29.2542 21.465 28.8888C21.5037 28.8258 21.5037 28.8258 21.5433 28.7614C21.6899 28.518 21.6899 28.518 21.7246 28.2397C21.6573 28.229 21.6573 28.229 21.5887 28.2181C20.0462 27.9691 18.521 27.6385 17.0583 27.0767C17.0111 27.0588 16.9639 27.041 16.9152 27.0226C16.8753 27.0069 16.8353 26.9912 16.7941 26.975C16.4789 26.8953 16.2151 26.9449 15.9147 27.0533Z" fill="#005EFF"/>
<path d="M13.797 13.1421C14.0152 13.2028 14.1118 13.3368 14.26 13.5052C14.3461 13.6705 14.42 13.8281 14.4898 13.9999C14.5208 14.0735 14.5208 14.0735 14.5524 14.1486C14.6207 14.3111 14.6879 14.474 14.755 14.637C14.8029 14.7518 14.8509 14.8665 14.899 14.9812C15.0278 15.2895 15.1556 15.5982 15.2831 15.9071C15.3646 16.1042 15.4463 16.3013 15.528 16.4984C15.8172 17.1953 16.1064 17.8923 16.3922 18.5906C16.5039 18.8634 16.6169 19.1354 16.7336 19.4061C16.755 19.4562 16.7763 19.5063 16.7983 19.558C16.838 19.6507 16.8781 19.7433 16.9189 19.8356C17.0286 20.0941 17.0791 20.2998 17.0511 20.5803C16.9041 20.881 16.9041 20.881 16.7266 20.9698C16.3576 21.006 16.3576 21.006 16.2073 20.9698C15.9522 20.7476 15.8193 20.5475 15.6949 20.2347C15.6481 20.1185 15.6481 20.1185 15.6004 20C15.5849 19.9601 15.5693 19.9202 15.5532 19.8791C15.5052 19.7561 15.4561 19.6336 15.4067 19.5112C15.1688 18.9139 15.1688 18.9139 15.1688 18.7628C14.2049 18.7843 13.241 18.8057 12.2478 18.8277C12.0051 19.4351 12.0051 19.4351 11.7644 20.0433C11.7182 20.157 11.7182 20.157 11.671 20.273C11.6401 20.3505 11.6091 20.428 11.5773 20.5078C11.4588 20.7289 11.3546 20.8353 11.1444 20.9698C10.859 21.0156 10.7395 21.0035 10.4993 20.8399C10.3315 20.5957 10.3282 20.4107 10.3655 20.1259C10.4278 19.9106 10.5142 19.7085 10.6038 19.5032C10.6291 19.4432 10.6544 19.3832 10.6805 19.3213C10.764 19.124 10.8487 18.9272 10.9334 18.7304C10.9919 18.5927 11.0503 18.455 11.1086 18.3172C11.2307 18.029 11.3532 17.7409 11.4759 17.453C11.663 17.013 11.8468 16.5717 12.0298 16.1299C12.0739 16.0236 12.0739 16.0236 12.1188 15.9151C12.2331 15.6393 12.3473 15.3635 12.4614 15.0877C12.5401 14.8975 12.6191 14.7074 12.6982 14.5174C12.7211 14.4618 12.744 14.4062 12.7677 14.3489C13.2599 13.1674 13.2599 13.1674 13.797 13.1421ZM13.6758 15.3226C13.5729 15.5579 13.4702 15.7932 13.3675 16.0285C13.3387 16.0943 13.31 16.1601 13.2803 16.2278C12.9363 16.8898 12.9363 16.8898 12.7671 17.5945C13.3883 17.5945 14.0095 17.5945 14.6495 17.5945C14.3679 16.8272 14.0625 16.0739 13.7408 15.3226C13.7193 15.3226 13.6979 15.3226 13.6758 15.3226Z" fill="#005EFF"/>
<path d="M18.7529 13.1354C18.8366 13.135 18.9204 13.1345 19.0067 13.134C19.1837 13.1333 19.3607 13.1337 19.5377 13.1349C19.7641 13.1364 19.9903 13.1347 20.2167 13.132C20.4333 13.13 20.6499 13.1308 20.8665 13.1314C20.9475 13.1304 21.0286 13.1294 21.1122 13.1284C21.6585 13.1357 21.6585 13.1357 21.8488 13.2657C21.9703 13.4058 22.0425 13.5314 22.0734 13.7151C22.0376 13.902 22.0061 14.0586 21.8949 14.2153C21.438 14.514 20.9115 14.3492 20.3614 14.3492C20.3614 16.1485 20.3614 17.9478 20.3614 19.8016C20.7684 19.8016 21.1754 19.8016 21.5947 19.8016C21.9885 20.0378 21.9885 20.0378 22.049 20.2559C22.0403 20.5017 22.0265 20.6556 21.8743 20.8522C21.6861 21.0001 21.5861 21.0031 21.3486 21.0046C21.2352 21.0061 21.2352 21.0061 21.1195 21.0077C21.0381 21.0074 20.9567 21.007 20.8728 21.0067C20.7889 21.0071 20.7051 21.0075 20.6187 21.0079C20.4413 21.0086 20.2639 21.0083 20.0865 21.0074C19.8597 21.0062 19.6329 21.0078 19.406 21.0101C19.1891 21.0118 18.9721 21.0112 18.7551 21.0108C18.6739 21.0116 18.5926 21.0125 18.5088 21.0134C17.8823 21.0067 17.8823 21.0067 17.6813 20.8136C17.5084 20.5517 17.5261 20.4354 17.5703 20.1261C17.6917 19.9683 17.7833 19.8898 17.9598 19.8016C18.3667 19.8016 18.7737 19.8016 19.193 19.8016C19.193 18.0023 19.193 16.203 19.193 14.3492C18.786 14.3492 18.3791 14.3492 17.9598 14.3492C17.6352 14.1545 17.6352 14.1545 17.5703 14.0246C17.5259 13.5729 17.5259 13.5729 17.6811 13.3371C17.9648 13.0656 18.3864 13.1334 18.7529 13.1354Z" fill="#005EFF"/>
</svg> 