<svg width="33" height="35" viewBox="0 0 33 35" fill="none" xmlns="http://www.w3.org/2000/svg">
<path d="M19.373 1.98176C19.7101 2.23108 20.018 2.5092 20.3223 2.79718C20.3784 2.84831 20.4344 2.89943 20.4922 2.9521C21.3466 3.76068 21.9564 4.76461 22.5292 5.78301C22.5784 5.86935 22.6277 5.95564 22.677 6.04189C22.7324 6.13866 22.7324 6.13866 22.7889 6.23738C22.8656 6.23585 22.8656 6.23585 22.9439 6.23429C25.0334 6.19836 27.1472 6.317 28.9268 7.53962C29.2052 7.69649 29.2963 7.66613 29.6043 7.60048C30.3807 7.54067 31.0101 7.6751 31.616 8.18111C32.0679 8.64357 32.2659 9.18595 32.29 9.82362C32.2781 10.4705 32.0623 11.0225 31.6165 11.495C31.3829 11.6898 31.3829 11.6898 31.2271 11.6898C31.2386 11.7424 31.2502 11.795 31.2621 11.8493C31.4773 13.5037 30.6242 15.4597 29.7613 16.8285C29.72 16.8942 29.72 16.8942 29.6779 16.9612C29.6247 17.0448 29.5703 17.1277 29.5146 17.2097C29.4304 17.3352 29.4304 17.3352 29.3447 17.5316C29.4131 17.7534 29.52 17.9446 29.6393 18.1427C30.5031 19.5997 31.1536 21.1146 31.2717 22.8217C31.2749 22.8669 31.278 22.912 31.2813 22.9585C31.293 23.1626 31.2924 23.3073 31.2271 23.5033C31.2646 23.5195 31.302 23.5357 31.3407 23.5525C31.7473 23.777 32.0121 24.1704 32.1683 24.5986C32.3405 25.2018 32.326 25.7817 32.0709 26.3593C31.7423 26.9243 31.2661 27.3477 30.6431 27.5505C30.221 27.6416 29.7868 27.6397 29.369 27.5317C29.0537 27.5259 28.8861 27.6793 28.631 27.854C27.1998 28.7938 25.4162 28.9484 23.7544 28.9922C23.6541 28.995 23.5539 28.9978 23.4537 29.0007C23.2104 29.0075 22.9672 29.0141 22.7239 29.0206C22.6901 29.0882 22.6562 29.1558 22.6213 29.2254C21.6079 31.2124 20.1192 33.1254 17.9856 33.9537C17.9134 33.9819 17.8413 34.0101 17.767 34.0391C16.4702 34.4611 15.0188 34.2965 13.8111 33.7062C13.1328 33.3568 12.567 32.9201 12.0139 32.3959C11.9531 32.34 11.8922 32.2841 11.8296 32.2265C10.8671 31.3222 10.1961 30.1947 9.61225 29.0206C9.52563 29.0191 9.52563 29.0191 9.43726 29.0177C7.2027 28.9769 7.2027 28.9769 6.10715 28.7609C6.06084 28.752 6.01452 28.743 5.96681 28.7338C5.04157 28.5481 4.20894 28.1798 3.41037 27.6823C3.15195 27.5367 3.01389 27.5155 2.73186 27.5926C2.08754 27.6465 1.52941 27.5917 0.996803 27.2039C0.450841 26.7369 0.117158 26.2633 0.0563781 25.5416C0.0334346 24.8619 0.198823 24.3352 0.654761 23.8278C0.738475 23.7642 0.738475 23.7642 0.823881 23.6993C1.06099 23.4003 1.04647 23.0964 1.07262 22.7244C1.23157 21.0394 1.84086 19.55 2.71335 18.1097C2.7629 18.0253 2.81236 17.9407 2.86168 17.8562C2.89507 17.8003 2.92845 17.7445 2.96285 17.687C3.00828 17.4406 2.87296 17.2855 2.73997 17.0894C2.68465 17.0026 2.62963 16.9157 2.57491 16.8285C2.54677 16.7839 2.51862 16.7392 2.48962 16.6932C1.66283 15.3347 1.17481 13.8348 1.06052 12.2533C1.03838 11.8528 1.03838 11.8528 0.825909 11.5323C0.76943 11.4986 0.712952 11.4649 0.654761 11.4301C0.168219 10.7934 -0.00307399 10.216 0.070577 9.41794C0.195347 8.85012 0.473282 8.35297 0.94229 8.0016C1.52905 7.63242 2.04642 7.56385 2.73186 7.60048C2.84833 7.6306 2.84833 7.6306 2.96716 7.66133C3.27982 7.66712 3.43961 7.51655 3.69282 7.34337C5.42716 6.23662 7.56148 6.1978 9.54735 6.23738C9.60859 6.12442 9.60859 6.12442 9.67108 6.00918C10.3011 4.85556 10.9906 3.77247 11.949 2.86209C12.0015 2.80896 12.0541 2.75583 12.1082 2.70109C14.1271 0.703865 17.0137 0.394119 19.373 1.98176ZM13.1174 3.38137C13.0681 3.42203 13.0188 3.4627 12.968 3.50459C12.2228 4.13525 11.6792 4.95202 11.1741 5.77896C11.148 5.82123 11.1219 5.86351 11.095 5.90706C10.9462 6.1519 10.9462 6.1519 10.9104 6.43211C10.9553 6.43922 11.0002 6.44633 11.0464 6.45366C12.5785 6.70101 14.117 7.01264 15.5596 7.60083C16.1688 7.83668 16.6684 7.64276 17.2594 7.43009C18.617 6.96126 20.0074 6.65002 21.4258 6.43211C21.3906 6.11093 21.2433 5.88666 21.0728 5.62074C21.0439 5.57513 21.0149 5.52952 20.9851 5.48252C20.7021 5.04302 20.3937 4.62947 20.0627 4.22519C20.0169 4.16863 19.9711 4.11206 19.924 4.05379C19.1651 3.16165 18.0097 2.29991 16.8172 2.14809C15.3714 2.03484 14.2186 2.42585 13.1174 3.38137ZM4.15987 8.4443C4.2284 8.65675 4.29957 8.85466 4.39516 9.05688C4.58303 9.55882 4.56342 10.1802 4.37894 10.6796C4.06515 11.3366 3.65537 11.6834 2.98744 11.9697C2.73101 12.0297 2.47473 12.0571 2.21259 12.0792C2.35883 13.5395 2.81417 14.8485 3.50748 16.1371C3.52845 16.1761 3.54943 16.2151 3.57104 16.2553C3.64689 16.373 3.73325 16.4626 3.83532 16.558C3.88326 16.5014 3.93121 16.4448 3.98061 16.3866C4.6304 15.6223 5.30343 14.889 6.00978 14.1766C6.06601 14.1195 6.12223 14.0625 6.18016 14.0037C6.60107 13.5822 7.04133 13.1488 7.54991 12.8334C7.7129 12.6846 7.72228 12.5583 7.75955 12.3427C7.77392 12.2641 7.7883 12.1856 7.80311 12.1046C7.81032 12.0629 7.81752 12.0211 7.82494 11.978C7.86353 11.7559 7.90628 11.5346 7.94895 11.3132C7.95759 11.2682 7.96622 11.2232 7.97512 11.1768C8.22651 9.88459 8.64544 8.64127 9.09298 7.40575C7.30968 7.3554 5.73589 7.58947 4.15987 8.4443ZM23.2432 7.40575C23.2625 7.46112 23.2817 7.51649 23.3016 7.57354C23.6364 8.54234 23.9653 9.50972 24.2128 10.5052C24.2312 10.579 24.2496 10.6529 24.2685 10.7289C24.3509 11.0716 24.4219 11.4116 24.4717 11.7605C24.5547 12.4934 24.5547 12.4934 24.9917 13.0569C25.1224 13.1429 25.2536 13.2281 25.3852 13.3125C25.5172 13.4253 25.6445 13.5385 25.7706 13.6573C25.8045 13.6889 25.8384 13.7204 25.8734 13.7529C26.6629 14.4932 27.4509 15.2441 28.1114 16.1036C28.2397 16.2565 28.3702 16.4072 28.5009 16.558C29.4633 15.4429 30.1361 13.5489 30.0587 12.0792C30.0108 12.0744 29.9628 12.0695 29.9134 12.0645C29.307 11.9859 28.765 11.8034 28.3427 11.3409C27.8703 10.7251 27.7931 10.1132 27.8518 9.35303C27.9032 9.16957 27.9658 9.00834 28.0483 8.83705C28.1102 8.70661 28.1461 8.58507 28.1763 8.4443C26.6003 7.58947 25.0265 7.3554 23.2432 7.40575ZM10.3263 7.53557C10.0769 7.98731 9.91708 8.46392 9.75624 8.95213C9.71026 9.09146 9.66346 9.23049 9.61656 9.36951C9.22302 10.4436 9.22302 10.4436 9.09298 11.5599C9.38179 11.3999 9.65735 11.2297 9.92994 11.0435C11.3564 10.0691 12.8891 9.18712 14.4805 8.50921C14.4276 8.36732 14.4276 8.36732 14.285 8.32809C14.2277 8.3118 14.1703 8.29551 14.1113 8.27873C14.0466 8.26029 13.9819 8.24185 13.9152 8.22285C13.8447 8.20356 13.7742 8.18426 13.7015 8.16438C13.593 8.13443 13.593 8.13443 13.4823 8.10387C12.4563 7.82717 11.3939 7.55892 10.3263 7.53557ZM20.7564 7.66944C20.6803 7.68361 20.6042 7.69778 20.5258 7.71237C19.1499 7.95095 19.1499 7.95095 17.8557 8.4443C17.9941 8.58261 18.1025 8.63649 18.2792 8.71788C18.3394 8.74598 18.3997 8.77409 18.4618 8.80304C18.5269 8.83326 18.5919 8.86348 18.659 8.89461C20.2485 9.64518 21.7428 10.5467 23.1783 11.5599C23.2987 11.2063 23.153 10.8698 23.0607 10.5214C23.0306 10.4065 23.0306 10.4065 22.9999 10.2893C22.6399 8.85078 22.6399 8.85078 22.0099 7.53557C21.5889 7.48891 21.1693 7.59206 20.7564 7.66944ZM1.3817 9.30638C1.21187 9.54978 1.2154 9.77974 1.23895 10.067C1.36221 10.4446 1.53145 10.6563 1.88804 10.8459C2.18388 10.9446 2.45147 10.9716 2.74226 10.8543C3.05311 10.6771 3.2695 10.4774 3.38095 10.1319C3.44178 9.81044 3.40887 9.5555 3.25114 9.26784C3.06327 9.00195 2.84709 8.8629 2.53713 8.76885C2.0034 8.70443 1.70957 8.91396 1.3817 9.30638ZM29.1246 9.19557C28.9297 9.49007 28.8965 9.78706 28.9552 10.1319C29.0657 10.4771 29.2834 10.6785 29.5947 10.8538C29.8962 10.9771 30.148 10.9467 30.4563 10.8419C30.7496 10.6442 30.9843 10.4058 31.0973 10.067C31.1231 9.72504 31.0923 9.51099 30.9025 9.22321C30.6242 8.94163 30.4184 8.78562 30.0141 8.7445C29.6447 8.75063 29.3663 8.92196 29.1246 9.19557ZM15.7528 9.17605C15.6808 9.20784 15.6088 9.23962 15.5347 9.27237C15.4572 9.30702 15.3798 9.34167 15.2999 9.37737C15.2603 9.39507 15.2207 9.41277 15.1799 9.431C13.0932 10.3653 11.1192 11.4932 9.29582 12.8784C9.25027 12.913 9.20471 12.9476 9.15778 12.9833C8.82507 13.234 8.82507 13.234 8.67194 13.6148C8.66488 13.6833 8.65781 13.7518 8.65053 13.8224C8.63842 13.9374 8.63842 13.9374 8.62606 14.0548C8.61816 14.1351 8.61025 14.2155 8.6021 14.2983C8.59394 14.3754 8.58579 14.4525 8.57738 14.532C8.47515 15.5269 8.42871 16.5158 8.42766 17.5154C8.42755 17.5707 8.42744 17.626 8.42733 17.683C8.42723 18.5203 8.4618 19.3506 8.53314 20.1848C8.53928 20.2577 8.53928 20.2577 8.54555 20.3321C8.57033 21.2346 8.57033 21.2346 8.89166 22.0398C8.94471 22.0783 8.99776 22.1167 9.05241 22.1564C9.14843 22.2274 9.14843 22.2274 9.24638 22.2999C9.32505 22.3549 9.40374 22.4098 9.48244 22.4647C9.58079 22.5358 9.67908 22.607 9.77732 22.6782C10.433 23.1493 11.1037 23.59 11.7995 23.9994C11.8999 24.0585 12.0001 24.1181 12.1 24.178C12.8334 24.6176 13.5854 25.0096 14.3547 25.3816C14.3972 25.4022 14.4397 25.4228 14.4835 25.444C14.6868 25.5422 14.8906 25.6391 15.0956 25.7337C15.244 25.8027 15.3914 25.8739 15.5375 25.9475C15.954 26.1512 15.954 26.1512 16.3993 26.1073C16.4964 26.0638 16.5924 26.0178 16.6874 25.9698C16.8009 25.9212 16.9145 25.8727 17.0282 25.8243C17.1528 25.7678 17.2772 25.7108 17.4014 25.6534C17.4688 25.6223 17.5362 25.5911 17.6057 25.559C20.9494 24.0976 20.9494 24.0976 23.6327 21.7507C23.6675 21.5731 23.6675 21.5731 23.6857 21.3706C23.6978 21.2556 23.6978 21.2556 23.7101 21.1383C23.718 21.0579 23.726 20.9775 23.7341 20.8947C23.7423 20.8176 23.7504 20.7405 23.7588 20.6611C23.861 19.6661 23.9075 18.6773 23.9085 17.6777C23.9087 17.6223 23.9088 17.567 23.9089 17.51C23.909 16.6728 23.8744 15.8424 23.8031 15.0083C23.799 14.9596 23.7949 14.911 23.7906 14.861C23.7659 13.9584 23.7659 13.9584 23.4445 13.1533C23.3915 13.1148 23.3384 13.0763 23.2838 13.0366C23.1865 12.9648 23.1865 12.9648 23.0873 12.8916C23.0318 12.8529 23.0318 12.8529 22.9752 12.8134C22.8425 12.7204 22.7122 12.6246 22.5817 12.5285C19.3029 10.0771 19.3029 10.0771 15.7528 9.17605ZM6.97125 14.8391C6.93383 14.8763 6.89641 14.9136 6.85785 14.9519C6.7781 15.0313 6.69843 15.1108 6.61885 15.1904C6.49926 15.3099 6.37916 15.4288 6.25903 15.5477C5.8582 15.9466 5.47687 16.3484 5.12608 16.7927C4.96223 16.9998 4.78911 17.1983 4.6155 17.3972C4.53293 17.5303 4.53293 17.5303 4.58026 17.6835C4.70982 17.9097 4.86764 18.0956 5.0402 18.2902C5.07187 18.3267 5.10354 18.3631 5.13617 18.4007C5.24271 18.5228 5.35031 18.6439 5.45805 18.7649C5.52362 18.8392 5.52362 18.8392 5.5905 18.915C5.95503 19.325 6.33507 19.7166 6.72379 20.1036C6.78253 20.1626 6.84126 20.2216 6.90178 20.2824C6.98537 20.3659 6.98537 20.3659 7.07065 20.451C7.12098 20.5013 7.1713 20.5515 7.22316 20.6033C7.32169 20.7195 7.32169 20.7195 7.40534 20.7122C7.39831 20.5977 7.39831 20.5977 7.39114 20.4809C7.28323 18.4901 7.28314 16.4709 7.40534 14.4809C7.25244 14.4809 7.07982 14.7308 6.97125 14.8391ZM24.9309 14.4809C24.9328 14.517 24.9348 14.5532 24.9368 14.5905C25.0422 16.6262 25.0415 18.6767 24.9309 20.7122C25.3162 20.3921 25.6723 20.0482 26.0262 19.6939C26.084 19.6361 26.1418 19.5782 26.2014 19.5186C26.5836 19.1327 26.9388 18.7431 27.2676 18.3105C27.3661 18.1873 27.4648 18.0642 27.5638 17.9414C27.6382 17.8481 27.7126 17.7548 27.7869 17.6614C27.6907 17.3571 27.5121 17.1458 27.3041 16.9109C27.2516 16.8508 27.2516 16.8508 27.198 16.7895C27.0919 16.6686 26.9851 16.5483 26.8781 16.4282C26.8223 16.365 26.7665 16.3018 26.709 16.2367C26.3318 15.8173 25.9374 15.416 25.5394 15.0164C25.487 14.9637 25.4346 14.911 25.3806 14.8567C25.3318 14.808 25.2829 14.7593 25.2326 14.7091C25.1885 14.6651 25.1445 14.6211 25.0991 14.5758C25.0112 14.4736 25.0112 14.4736 24.9309 14.4809ZM3.77041 18.6351C2.98848 19.9684 2.21259 21.5237 2.21259 23.1138C2.26522 23.1187 2.31785 23.1235 2.37207 23.1285C3.00226 23.2034 3.55368 23.3716 3.99354 23.8522C4.46593 24.4679 4.54307 25.0798 4.48441 25.84C4.433 26.0235 4.37045 26.1847 4.28791 26.356C4.22605 26.4864 4.19006 26.608 4.15987 26.7487C5.73589 27.6036 7.30968 27.8376 9.09298 27.7873C9.06116 27.6964 9.06116 27.6964 9.02869 27.6037C8.6597 26.5452 8.30055 25.4894 8.05037 24.3958C8.03206 24.3158 8.01376 24.2357 7.99489 24.1533C7.92284 23.8273 7.85601 23.5037 7.81432 23.1724C7.75791 22.7274 7.70461 22.4483 7.34448 22.1523C7.21378 22.0611 7.0826 21.9705 6.95097 21.8805C6.43501 21.4436 5.95812 20.9607 5.47834 20.485C5.42128 20.4288 5.36423 20.3726 5.30545 20.3147C4.91696 19.9267 4.56664 19.5187 4.22478 19.0894C4.09742 18.9353 3.96819 18.7845 3.83532 18.6351C3.8139 18.6351 3.79248 18.6351 3.77041 18.6351ZM28.5009 18.6351C28.4483 18.6963 28.3956 18.7576 28.3414 18.8207C26.0392 21.4936 26.0392 21.4936 24.8306 22.3177C24.6375 22.4958 24.6151 22.5935 24.5726 22.8499C24.5588 22.9272 24.5449 23.0046 24.5307 23.0843C24.5168 23.1676 24.5029 23.251 24.4887 23.3369C24.4567 23.5143 24.4233 23.6914 24.3895 23.8684C24.381 23.9136 24.3724 23.9588 24.3636 24.0054C24.1139 25.2973 23.6968 26.5544 23.2432 27.7873C24.9598 27.8347 26.6853 27.6684 28.1763 26.7487C28.1078 26.5363 28.0366 26.3384 27.941 26.1362C27.7461 25.6189 27.7673 24.9271 27.9755 24.4153C28.2961 23.8142 28.7313 23.4844 29.3528 23.2234C29.5879 23.1671 29.8183 23.1387 30.0587 23.1138C30.0927 21.7422 29.5524 19.7371 28.5892 18.7171C28.56 18.69 28.5309 18.663 28.5009 18.6351ZM9.09298 23.6331C9.13096 24.1305 9.24636 24.5868 9.38507 25.0652C9.41903 25.1833 9.41903 25.1833 9.45367 25.3038C9.74116 26.5594 9.74116 26.5594 10.3263 27.6575C10.9207 27.651 11.4995 27.5418 12.0788 27.4181C12.16 27.401 12.2411 27.3839 12.3247 27.3663C12.8365 27.2561 13.3436 27.134 13.8476 26.9922C13.9047 26.9762 13.9619 26.9602 14.0208 26.9438C14.1537 26.9047 14.2849 26.8598 14.4155 26.8137C14.4477 26.7494 14.4477 26.7494 14.4805 26.6838C14.4316 26.6611 14.3827 26.6383 14.3324 26.6148C13.2003 26.0847 12.108 25.519 11.0403 24.8664C10.9895 24.8356 10.9387 24.8048 10.8864 24.773C10.3485 24.446 9.82577 24.1022 9.3123 23.7381C9.18006 23.627 9.18006 23.627 9.09298 23.6331ZM23.1783 23.6331C23.1386 23.6601 23.0989 23.6872 23.058 23.715C21.4185 24.8281 19.7016 25.939 17.8557 26.6838C17.9086 26.8257 17.9086 26.8257 18.0512 26.8649C18.1085 26.8812 18.1659 26.8975 18.2249 26.9143C18.2896 26.9328 18.3543 26.9512 18.421 26.9702C18.4915 26.9895 18.562 27.0088 18.6347 27.0287C18.707 27.0486 18.7794 27.0686 18.8539 27.0892C19.8799 27.3659 20.9423 27.6341 22.0099 27.6575C22.2614 27.1953 22.4261 26.712 22.5901 26.2132C22.6042 26.1704 22.6184 26.1276 22.633 26.0835C22.813 25.5388 22.9839 24.9925 23.1256 24.4363C23.1458 24.3581 23.1458 24.3581 23.1665 24.2783C23.2244 24.0379 23.2505 23.8692 23.1783 23.6331ZM1.40528 24.7406C1.24844 25.0355 1.21639 25.2477 1.23895 25.5804C1.36136 25.9332 1.58738 26.1495 1.88804 26.3593C2.21259 26.4675 2.49082 26.4616 2.80488 26.3268C3.09629 26.1653 3.26206 25.9554 3.38095 25.6453C3.4476 25.302 3.40566 25.0021 3.21158 24.7089C3.00935 24.48 2.77144 24.3196 2.47121 24.2533C2.0319 24.2273 1.67574 24.4008 1.40528 24.7406ZM29.1246 24.7089C28.9297 25.0034 28.8965 25.3004 28.9552 25.6453C29.0657 25.9905 29.2834 26.1918 29.5947 26.3671C29.8962 26.4905 30.148 26.46 30.4563 26.3552C30.7496 26.1576 30.9843 25.9191 31.0973 25.5804C31.1231 25.2382 31.086 25.0276 30.9025 24.7366C30.6251 24.4154 30.4247 24.3018 30.006 24.2538C29.6421 24.2648 29.3626 24.4396 29.1246 24.7089ZM15.6159 27.5746C15.5474 27.5986 15.4789 27.6226 15.4084 27.6474C15.3351 27.6735 15.2618 27.6996 15.1863 27.7264C13.7894 28.2067 12.3697 28.5367 10.9104 28.7609C10.9456 29.0821 11.0929 29.3064 11.2634 29.5723C11.2924 29.618 11.3214 29.6636 11.3512 29.7107C12.2868 31.1628 13.5538 32.6127 15.3139 33.0188C16.5779 33.1798 17.7005 32.9573 18.7485 32.2021C18.9089 32.0758 19.0643 31.9452 19.2188 31.8117C19.2634 31.7758 19.3079 31.7399 19.3537 31.7029C19.7298 31.3927 20.0253 31.0282 20.3223 30.6433C20.3658 30.5871 20.4093 30.5308 20.4541 30.4729C20.7111 30.1303 20.9434 29.7755 21.1661 29.41C21.2049 29.347 21.2049 29.347 21.2445 29.2827C21.3911 29.0392 21.3911 29.0392 21.4258 28.7609C21.3585 28.7503 21.3585 28.7503 21.2898 28.7394C19.7474 28.4904 18.2222 28.1597 16.7595 27.5979C16.7123 27.5801 16.665 27.5623 16.6164 27.5439C16.5764 27.5282 16.5365 27.5124 16.4953 27.4962C16.1801 27.4166 15.9163 27.4662 15.6159 27.5746Z" fill="#8A8A8A"/>
<path d="M13.4982 13.6633C13.7164 13.7241 13.8129 13.858 13.9612 14.0264C14.0473 14.1918 14.1211 14.3494 14.1909 14.5211C14.222 14.5947 14.222 14.5947 14.2536 14.6698C14.3219 14.8323 14.389 14.9953 14.4561 15.1583C14.5041 15.273 14.5521 15.3878 14.6001 15.5025C14.729 15.8108 14.8568 16.1195 14.9843 16.4283C15.0658 16.6255 15.1475 16.8226 15.2292 17.0196C15.5184 17.7166 15.8075 18.4135 16.0933 19.1119C16.2051 19.3846 16.3181 19.6567 16.4348 19.9274C16.4562 19.9775 16.4775 20.0276 16.4995 20.0792C16.5391 20.172 16.5793 20.2645 16.6201 20.3568C16.7298 20.6153 16.7803 20.821 16.7523 21.1015C16.6053 21.4022 16.6053 21.4022 16.4278 21.491C16.0588 21.5273 16.0588 21.5273 15.9085 21.491C15.6534 21.2689 15.5205 21.0687 15.3961 20.7559C15.3493 20.6398 15.3493 20.6398 15.3016 20.5213C15.286 20.4814 15.2705 20.4415 15.2544 20.4003C15.2064 20.2773 15.1573 20.1549 15.1079 20.0324C14.8699 19.4351 14.8699 19.4351 14.8699 19.2841C13.906 19.3055 12.9421 19.3269 11.949 19.349C11.7063 19.9564 11.7063 19.9564 11.4656 20.5646C11.4193 20.6783 11.4193 20.6783 11.3722 20.7942C11.3412 20.8717 11.3103 20.9492 11.2784 21.0291C11.16 21.2502 11.0557 21.3566 10.8456 21.491C10.5602 21.5369 10.4407 21.5247 10.2005 21.3612C10.0326 21.117 10.0294 20.932 10.0666 20.6472C10.1289 20.4318 10.2153 20.2297 10.305 20.0244C10.3303 19.9644 10.3556 19.9044 10.3817 19.8426C10.4651 19.6452 10.5499 19.4484 10.6346 19.2516C10.6931 19.1139 10.7515 18.9762 10.8098 18.8385C10.9319 18.5502 11.0544 18.2622 11.1771 17.9742C11.3642 17.5342 11.548 17.0929 11.731 16.6512C11.775 16.5448 11.775 16.5448 11.82 16.4364C11.9343 16.1606 12.0485 15.8848 12.1626 15.6089C12.2413 15.4187 12.3203 15.2287 12.3993 15.0386C12.4223 14.983 12.4452 14.9274 12.4688 14.8702C12.961 13.6886 12.961 13.6886 13.4982 13.6633ZM13.377 15.8439C13.2741 16.0791 13.1714 16.3144 13.0687 16.5498C13.0399 16.6155 13.0111 16.6813 12.9815 16.7491C12.6374 17.411 12.6374 17.411 12.4683 18.1157C13.0895 18.1157 13.7107 18.1157 14.3507 18.1157C14.0691 17.3485 13.7636 16.5951 13.4419 15.8439C13.4205 15.8439 13.3991 15.8439 13.377 15.8439Z" fill="#8A8A8A"/>
<path d="M18.454 13.6567C18.5378 13.6562 18.6216 13.6557 18.7079 13.6553C18.8849 13.6545 19.0619 13.6549 19.2389 13.6562C19.4653 13.6577 19.6915 13.6559 19.9179 13.6533C20.1345 13.6512 20.351 13.6521 20.5676 13.6526C20.6487 13.6516 20.7298 13.6506 20.8133 13.6496C21.3597 13.657 21.3597 13.657 21.5499 13.787C21.6715 13.9271 21.7437 14.0527 21.7746 14.2363C21.7387 14.4233 21.7072 14.5799 21.5961 14.7366C21.1392 15.0353 20.6127 14.8704 20.0626 14.8704C20.0626 16.6697 20.0626 18.469 20.0626 20.3228C20.4696 20.3228 20.8765 20.3228 21.2958 20.3228C21.6896 20.5591 21.6896 20.5591 21.7502 20.7772C21.7414 21.023 21.7277 21.1769 21.5754 21.3734C21.3873 21.5214 21.2873 21.5244 21.0498 21.5258C20.9364 21.5274 20.9364 21.5274 20.8207 21.5289C20.7393 21.5286 20.6579 21.5283 20.574 21.528C20.4901 21.5284 20.4063 21.5288 20.3198 21.5292C20.1425 21.5298 19.9651 21.5295 19.7877 21.5286C19.5608 21.5275 19.3341 21.529 19.1072 21.5313C18.8902 21.5331 18.6733 21.5324 18.4563 21.532C18.375 21.5329 18.2938 21.5337 18.21 21.5346C17.5835 21.5279 17.5835 21.5279 17.3825 21.3349C17.2096 21.0729 17.2273 20.9566 17.2715 20.6474C17.3929 20.4896 17.4845 20.411 17.6609 20.3228C18.0679 20.3228 18.4749 20.3228 18.8942 20.3228C18.8942 18.5235 18.8942 16.7242 18.8942 14.8704C18.4872 14.8704 18.0802 14.8704 17.6609 14.8704C17.3364 14.6757 17.3364 14.6757 17.2715 14.5459C17.227 14.0941 17.227 14.0941 17.3822 13.8584C17.666 13.5868 18.0876 13.6546 18.454 13.6567Z" fill="#8A8A8A"/>
</svg>
