<svg width="34" height="34" viewBox="0 0 34 34" fill="none" xmlns="http://www.w3.org/2000/svg">
<path d="M20.2009 1.46052C20.538 1.70984 20.8459 1.98796 21.1502 2.27594C21.2062 2.32707 21.2623 2.37819 21.3201 2.43086C22.1744 3.23944 22.7843 4.24337 23.3571 5.26177C23.4063 5.3481 23.4556 5.4344 23.5049 5.52065C23.5603 5.61742 23.5603 5.61742 23.6167 5.71614C23.6935 5.71461 23.6935 5.71461 23.7718 5.71305C25.8613 5.67712 27.9751 5.79576 29.7547 7.01838C30.033 7.17525 30.1241 7.14489 30.4322 7.07924C31.2086 7.01943 31.838 7.15386 32.4439 7.65987C32.8958 8.12233 33.0938 8.66471 33.1178 9.30238C33.106 9.94924 32.8902 10.5012 32.4444 10.9738C32.2107 11.1685 32.2107 11.1685 32.055 11.1685C32.0665 11.2212 32.078 11.2738 32.0899 11.328C32.3052 12.9824 31.452 14.9384 30.5892 16.3073C30.5479 16.373 30.5479 16.373 30.5058 16.44C30.4525 16.5236 30.3981 16.6065 30.3425 16.6885C30.2583 16.814 30.2583 16.814 30.1726 17.0104C30.241 17.2321 30.3479 17.4233 30.4672 17.6214C31.331 19.0784 31.9815 20.5933 32.0996 22.3005C32.1027 22.3456 32.1059 22.3908 32.1092 22.4373C32.1209 22.6414 32.1203 22.7861 32.055 22.982C32.0924 22.9983 32.1299 23.0145 32.1685 23.0312C32.5752 23.2557 32.84 23.6491 32.9961 24.0774C33.1684 24.6805 33.1539 25.2604 32.8988 25.838C32.5702 26.4031 32.094 26.8265 31.471 27.0292C31.0489 27.1203 30.6147 27.1185 30.1969 27.0105C29.8816 27.0046 29.714 27.1581 29.4588 27.3327C28.0277 28.2726 26.2441 28.4272 24.5823 28.4709C24.482 28.4737 24.3818 28.4766 24.2816 28.4794C24.0383 28.4863 23.7951 28.4929 23.5518 28.4993C23.5179 28.5669 23.4841 28.6345 23.4491 28.7042C22.4358 30.6912 20.9471 32.6042 18.8134 33.4324C18.7413 33.4606 18.6692 33.4888 18.5949 33.5179C17.2981 33.9399 15.8467 33.7752 14.639 33.185C13.9607 32.8356 13.3949 32.3989 12.8418 31.8746C12.781 31.8187 12.7201 31.7628 12.6574 31.7052C11.695 30.801 11.0239 29.6734 10.4401 28.4993C10.3535 28.4979 10.3535 28.4979 10.2651 28.4965C8.03058 28.4557 8.03058 28.4557 6.93503 28.2397C6.88872 28.2307 6.8424 28.2218 6.79469 28.2126C5.86945 28.0268 5.03682 27.6585 4.23825 27.1611C3.97983 27.0154 3.84177 26.9942 3.55974 27.0713C2.91542 27.1252 2.35729 27.0705 1.82468 26.6826C1.27872 26.2157 0.945038 25.7421 0.884259 25.0203C0.861315 24.3406 1.0267 23.814 1.48264 23.3066C1.56636 23.2429 1.56636 23.2429 1.65176 23.178C1.88888 22.879 1.87435 22.5752 1.9005 22.2031C2.05946 20.5181 2.66875 19.0287 3.54123 17.5885C3.59078 17.504 3.64024 17.4195 3.68956 17.3349C3.72295 17.2791 3.75633 17.2233 3.79073 17.1658C3.83616 16.9193 3.70084 16.7643 3.56786 16.5682C3.51253 16.4814 3.45752 16.3944 3.40279 16.3073C3.37465 16.2626 3.3465 16.218 3.3175 16.172C2.49071 14.8135 2.00269 13.3135 1.8884 11.7321C1.86627 11.3316 1.86627 11.3316 1.65379 11.0111C1.59731 10.9774 1.54083 10.9436 1.48264 10.9089C0.9961 10.2722 0.824807 9.69474 0.898458 8.8967C1.02323 8.32888 1.30116 7.83173 1.77017 7.48036C2.35694 7.11118 2.8743 7.04261 3.55974 7.07924C3.67621 7.10936 3.67621 7.10936 3.79504 7.14009C4.1077 7.14588 4.26749 6.99531 4.5207 6.82213C6.25504 5.71538 8.38936 5.67656 10.3752 5.71614C10.4365 5.60318 10.4365 5.60318 10.499 5.48794C11.129 4.33432 11.8185 3.25123 12.7769 2.34085C12.8294 2.28772 12.882 2.23459 12.9361 2.17985C14.955 0.182625 17.8416 -0.127121 20.2009 1.46052ZM13.9452 2.86013C13.896 2.90079 13.8467 2.94146 13.7959 2.98335C13.0507 3.61401 12.5071 4.43078 12.002 5.25772C11.9759 5.29999 11.9498 5.34227 11.9229 5.38582C11.774 5.63065 11.774 5.63065 11.7383 5.91087C11.7832 5.91798 11.828 5.92509 11.8743 5.93242C13.4064 6.17977 14.9449 6.4914 16.3875 7.07959C16.9967 7.31544 17.4963 7.12152 18.0873 6.90885C19.4449 6.44002 20.8353 6.12878 22.2536 5.91087C22.2184 5.58969 22.0712 5.36542 21.9007 5.0995C21.8717 5.05389 21.8428 5.00828 21.813 4.96128C21.5299 4.52178 21.2216 4.10823 20.8905 3.70395C20.8448 3.64739 20.799 3.59082 20.7519 3.53255C19.993 2.64041 18.8376 1.77867 17.6451 1.62685C16.1992 1.5136 15.0465 1.90461 13.9452 2.86013ZM4.98775 7.92306C5.05628 8.13551 5.12745 8.33342 5.22304 8.53564C5.41091 9.03758 5.39131 9.65894 5.20682 10.1584C4.89303 10.8154 4.48325 11.1622 3.81532 11.4484C3.55889 11.5085 3.30261 11.5358 3.04047 11.558C3.18671 13.0183 3.64205 14.3273 4.33536 15.6158C4.35633 15.6548 4.37731 15.6939 4.39892 15.7341C4.47477 15.8518 4.56113 15.9413 4.6632 16.0367C4.71115 15.9802 4.75909 15.9236 4.80849 15.8653C5.45828 15.1011 6.13131 14.3678 6.83767 13.6554C6.89389 13.5983 6.95011 13.5412 7.00804 13.4824C7.42895 13.061 7.86921 12.6276 8.37779 12.3121C8.54078 12.1633 8.55016 12.0371 8.58743 11.8214C8.60181 11.7429 8.61618 11.6643 8.63099 11.5834C8.6382 11.5416 8.6454 11.4998 8.65282 11.4568C8.69141 11.2347 8.73416 11.0134 8.77683 10.792C8.78547 10.747 8.7941 10.702 8.803 10.6556C9.05439 9.36335 9.47332 8.12003 9.92086 6.88451C8.13756 6.83416 6.56377 7.06823 4.98775 7.92306ZM24.0711 6.88451C24.0904 6.93988 24.1096 6.99525 24.1294 7.0523C24.4643 8.0211 24.7932 8.98848 25.0407 9.98393C25.0591 10.0578 25.0775 10.1316 25.0964 10.2077C25.1787 10.5503 25.2498 10.8904 25.2996 11.2393C25.3826 11.9722 25.3826 11.9722 25.8196 12.5357C25.9503 12.6216 26.0815 12.7068 26.2131 12.7913C26.3451 12.904 26.4724 13.0172 26.5985 13.1361C26.6324 13.1676 26.6663 13.1992 26.7012 13.2317C27.4908 13.972 28.2787 14.7229 28.9393 15.5824C29.0676 15.7352 29.1981 15.8859 29.3288 16.0367C30.2912 14.9216 30.9639 13.0277 30.8866 11.558C30.8386 11.5531 30.7907 11.5483 30.7413 11.5433C30.1349 11.4647 29.5929 11.2822 29.1705 10.8196C28.6982 10.2039 28.621 9.59199 28.6797 8.83179C28.7311 8.64833 28.7936 8.48709 28.8762 8.31581C28.938 8.18537 28.974 8.06383 29.0042 7.92306C27.4282 7.06823 25.8544 6.83416 24.0711 6.88451ZM11.1541 7.01433C10.9047 7.46607 10.745 7.94268 10.5841 8.43089C10.5381 8.57022 10.4913 8.70925 10.4444 8.84827C10.0509 9.92239 10.0509 9.92239 9.92086 11.0387C10.2097 10.8787 10.4852 10.7084 10.7578 10.5223C12.1843 9.5479 13.717 8.66588 15.3083 7.98797C15.2555 7.84608 15.2555 7.84608 15.1128 7.80685C15.0555 7.79056 14.9982 7.77427 14.9392 7.75749C14.8745 7.73905 14.8098 7.72061 14.7431 7.70161C14.6726 7.68231 14.6021 7.66302 14.5294 7.64314C14.4209 7.61319 14.4209 7.61319 14.3102 7.58263C13.2842 7.30593 12.2218 7.03767 11.1541 7.01433ZM21.5843 7.1482C21.5082 7.16237 21.4321 7.17654 21.3536 7.19113C19.9778 7.42971 19.9778 7.42971 18.6836 7.92306C18.8219 8.06137 18.9303 8.11525 19.1071 8.19664C19.1673 8.22474 19.2276 8.25285 19.2896 8.2818C19.3547 8.31202 19.4198 8.34224 19.4869 8.37337C21.0764 9.12394 22.5707 10.0255 24.0062 11.0387C24.1265 10.6851 23.9809 10.3485 23.8885 10.0002C23.8585 9.88526 23.8585 9.88526 23.8278 9.76803C23.4678 8.32954 23.4678 8.32954 22.8378 7.01433C22.4167 6.96767 21.9972 7.07082 21.5843 7.1482ZM2.20958 8.78514C2.03975 9.02854 2.04328 9.2585 2.06683 9.54579C2.19009 9.92334 2.35933 10.135 2.71592 10.3247C3.01176 10.4233 3.27935 10.4503 3.57014 10.3331C3.88099 10.1559 4.09739 9.95613 4.20884 9.6107C4.26966 9.2892 4.23675 9.03426 4.07902 8.7466C3.89115 8.48071 3.67497 8.34166 3.36501 8.2476C2.83128 8.18319 2.53745 8.39272 2.20958 8.78514ZM29.9525 8.67433C29.7575 8.96883 29.7244 9.26582 29.7831 9.6107C29.8936 9.9559 30.1113 10.1572 30.4226 10.3326C30.7241 10.4559 30.9759 10.4255 31.2842 10.3206C31.5774 10.123 31.8122 9.88457 31.9251 9.54579C31.9509 9.2038 31.9202 8.98975 31.7304 8.70197C31.4521 8.42039 31.2463 8.26438 30.842 8.22326C30.4726 8.22939 30.1942 8.40072 29.9525 8.67433ZM16.5807 8.65481C16.5087 8.68659 16.4367 8.71838 16.3626 8.75113C16.2851 8.78578 16.2076 8.82043 16.1278 8.85613C16.0882 8.87383 16.0486 8.89153 16.0078 8.90976C13.9211 9.84408 11.9471 10.9719 10.1237 12.3572C10.0781 12.3918 10.0326 12.4264 9.98566 12.462C9.65295 12.7127 9.65295 12.7127 9.49982 13.0935C9.49276 13.1621 9.48569 13.2306 9.47841 13.3012C9.4663 13.4162 9.4663 13.4162 9.45394 13.5335C9.44604 13.6139 9.43813 13.6943 9.42998 13.7771C9.42183 13.8542 9.41367 13.9313 9.40526 14.0107C9.30303 15.0057 9.25659 15.9945 9.25554 16.9941C9.25543 17.0495 9.25532 17.1048 9.25521 17.1618C9.25511 17.999 9.28968 18.8294 9.36102 19.6635C9.36716 19.7365 9.36716 19.7365 9.37343 19.8108C9.39821 20.7134 9.39821 20.7134 9.71954 21.5185C9.77259 21.557 9.82564 21.5955 9.88029 21.6352C9.97631 21.7062 9.97631 21.7062 10.0743 21.7787C10.1529 21.8336 10.2316 21.8886 10.3103 21.9435C10.4087 22.0146 10.507 22.0857 10.6052 22.157C11.2609 22.6281 11.9316 23.0688 12.6274 23.4782C12.7278 23.5373 12.8279 23.5969 12.9279 23.6568C13.6612 24.0964 14.4133 24.4883 15.1826 24.8603C15.2251 24.8809 15.2676 24.9015 15.3113 24.9227C15.5147 25.0209 15.7185 25.1179 15.9235 25.2125C16.0719 25.2815 16.2193 25.3526 16.3654 25.4263C16.7819 25.63 16.7819 25.63 17.2272 25.586C17.3243 25.5426 17.4203 25.4966 17.5153 25.4486C17.6288 25.4 17.7424 25.3515 17.856 25.3031C17.9807 25.2466 18.1051 25.1896 18.2293 25.1322C18.2967 25.101 18.3641 25.0699 18.4336 25.0378C21.7772 23.5764 21.7772 23.5764 24.4606 21.2295C24.4954 21.0519 24.4954 21.0519 24.5136 20.8494C24.5257 20.7344 24.5257 20.7344 24.538 20.617C24.5459 20.5367 24.5538 20.4563 24.562 20.3735C24.5701 20.2964 24.5783 20.2193 24.5867 20.1398C24.6889 19.1449 24.7354 18.156 24.7364 17.1564C24.7365 17.1011 24.7366 17.0458 24.7368 16.9888C24.7368 16.1515 24.7023 15.3212 24.6309 14.487C24.6268 14.4384 24.6228 14.3898 24.6185 14.3397C24.5938 13.4372 24.5938 13.4372 24.2724 12.632C24.2194 12.5935 24.1663 12.5551 24.1117 12.5154C24.0144 12.4436 24.0144 12.4436 23.9152 12.3704C23.8597 12.3316 23.8597 12.3316 23.8031 12.2921C23.6704 12.1992 23.5401 12.1033 23.4096 12.0073C20.1308 9.55581 20.1308 9.55581 16.5807 8.65481ZM7.79914 14.3179C7.76171 14.3551 7.72429 14.3923 7.68573 14.4306C7.60598 14.5101 7.52631 14.5896 7.44673 14.6692C7.32714 14.7886 7.20705 14.9076 7.08691 15.0265C6.68608 15.4254 6.30475 15.8272 5.95396 16.2715C5.79011 16.4786 5.61699 16.677 5.44338 16.876C5.36081 17.0091 5.36081 17.0091 5.40814 17.1622C5.5377 17.3885 5.69552 17.5744 5.86808 17.769C5.89975 17.8054 5.93142 17.8419 5.96405 17.8794C6.07059 18.0015 6.17819 18.1226 6.28594 18.2436C6.3515 18.3179 6.3515 18.3179 6.41839 18.3938C6.78291 18.8037 7.16295 19.1954 7.55167 19.5824C7.61041 19.6414 7.66914 19.7004 7.72966 19.7612C7.81325 19.8446 7.81325 19.8446 7.89853 19.9298C7.94886 19.98 7.99919 20.0303 8.05104 20.0821C8.14957 20.1983 8.14957 20.1983 8.23322 20.1909C8.22619 20.0765 8.22619 20.0765 8.21902 19.9597C8.11111 17.9689 8.11102 15.9497 8.23322 13.9596C8.08033 13.9596 7.9077 14.2096 7.79914 14.3179ZM25.7587 13.9596C25.7607 13.9958 25.7627 14.032 25.7647 14.0692C25.8701 16.105 25.8694 18.1554 25.7587 20.1909C26.1441 19.8709 26.5002 19.5269 26.8541 19.1727C26.9119 19.1148 26.9697 19.057 27.0292 18.9974C27.4115 18.6115 27.7666 18.2219 28.0955 17.7893C28.194 17.666 28.2927 17.543 28.3916 17.4201C28.466 17.3268 28.5404 17.2335 28.6148 17.1402C28.5186 16.8358 28.34 16.6245 28.132 16.3897C28.0795 16.3296 28.0795 16.3296 28.0259 16.2683C27.9198 16.1474 27.813 16.0271 27.706 15.9069C27.6502 15.8437 27.5944 15.7806 27.5369 15.7155C27.1596 15.2961 26.7653 14.8948 26.3673 14.4951C26.3149 14.4424 26.2625 14.3897 26.2085 14.3355C26.1597 14.2867 26.1108 14.238 26.0605 14.1878C26.0164 14.1438 25.9723 14.0998 25.9269 14.0545C25.8391 13.9523 25.8391 13.9523 25.7587 13.9596ZM4.59829 18.1138C3.81636 19.4472 3.04047 21.0024 3.04047 22.5926C3.0931 22.5974 3.14573 22.6023 3.19995 22.6073C3.83014 22.6821 4.38156 22.8504 4.82142 23.3309C5.29381 23.9467 5.37095 24.5586 5.31229 25.3188C5.26088 25.5022 5.19833 25.6635 5.11579 25.8347C5.05393 25.9652 5.01794 26.0867 4.98775 26.2275C6.56377 27.0823 8.13756 27.3164 9.92086 27.2661C9.88904 27.1752 9.88904 27.1752 9.85657 27.0824C9.48758 26.024 9.12843 24.9682 8.87825 23.8745C8.85994 23.7945 8.84164 23.7145 8.82277 23.6321C8.75072 23.3061 8.68389 22.9825 8.6422 22.6511C8.58579 22.2062 8.53249 21.927 8.17236 21.6311C8.04166 21.5398 7.91048 21.4492 7.77885 21.3593C7.2629 20.9224 6.786 20.4394 6.30622 19.9637C6.24917 19.9075 6.19211 19.8513 6.13333 19.7934C5.74484 19.4054 5.39452 18.9975 5.05266 18.5682C4.9253 18.4141 4.79607 18.2633 4.6632 18.1138C4.64178 18.1138 4.62036 18.1138 4.59829 18.1138ZM29.3288 18.1138C29.2761 18.1751 29.2235 18.2363 29.1693 18.2994C26.8671 20.9723 26.8671 20.9723 25.6585 21.7965C25.4654 21.9746 25.443 22.0723 25.4005 22.3286C25.3866 22.406 25.3728 22.4833 25.3585 22.563C25.3447 22.6464 25.3308 22.7298 25.3166 22.8157C25.2845 22.9931 25.2512 23.1701 25.2174 23.3471C25.2088 23.3924 25.2003 23.4376 25.1915 23.4842C24.9417 24.7761 24.5247 26.0332 24.0711 27.2661C25.7877 27.3134 27.5132 27.1471 29.0042 26.2275C28.9357 26.015 28.8645 25.8171 28.7689 25.6149C28.574 25.0977 28.5952 24.4059 28.8034 23.8941C29.124 23.2929 29.5592 22.9631 30.1807 22.7021C30.4158 22.6459 30.6461 22.6175 30.8866 22.5926C30.9205 21.2209 30.3803 19.2158 29.4171 18.1959C29.3879 18.1688 29.3588 18.1417 29.3288 18.1138ZM9.92086 23.1119C9.95884 23.6093 10.0742 24.0655 10.213 24.5439C10.2469 24.6621 10.2469 24.6621 10.2816 24.7826C10.569 26.0381 10.569 26.0381 11.1541 27.1362C11.7486 27.1298 12.3274 27.0206 12.9067 26.8969C12.9878 26.8798 13.069 26.8627 13.1526 26.8451C13.6644 26.7348 14.1715 26.6128 14.6755 26.4709C14.7326 26.455 14.7898 26.439 14.8486 26.4226C14.9816 26.3835 15.1128 26.3386 15.2434 26.2924C15.2756 26.2282 15.2756 26.2282 15.3083 26.1626C15.2595 26.1398 15.2106 26.1171 15.1603 26.0936C14.0282 25.5635 12.9359 24.9978 11.8681 24.3451C11.8174 24.3143 11.7666 24.2835 11.7143 24.2518C11.1764 23.9248 10.6536 23.581 10.1402 23.2168C10.0079 23.1058 10.0079 23.1058 9.92086 23.1119ZM24.0062 23.1119C23.9665 23.1389 23.9268 23.1659 23.8859 23.1938C22.2464 24.3069 20.5294 25.4177 18.6836 26.1626C18.7365 26.3045 18.7365 26.3045 18.8791 26.3437C18.9364 26.36 18.9937 26.3763 19.0528 26.3931C19.1175 26.4115 19.1822 26.43 19.2489 26.4489C19.3194 26.4682 19.3899 26.4875 19.4625 26.5074C19.5349 26.5274 19.6072 26.5474 19.6818 26.5679C20.7078 26.8446 21.7702 27.1129 22.8378 27.1362C23.0892 26.674 23.254 26.1908 23.418 25.692C23.4321 25.6492 23.4463 25.6064 23.4609 25.5623C23.6409 25.0176 23.8118 24.4713 23.9535 23.9151C23.9737 23.8369 23.9737 23.8369 23.9944 23.7571C24.0523 23.5167 24.0783 23.348 24.0062 23.1119ZM2.23316 24.2194C2.07632 24.5142 2.04427 24.7264 2.06683 25.0591C2.18924 25.412 2.41526 25.6283 2.71592 25.838C3.04047 25.9462 3.3187 25.9404 3.63277 25.8056C3.92418 25.644 4.08994 25.4342 4.20884 25.124C4.27548 24.7808 4.23354 24.4808 4.03946 24.1877C3.83723 23.9587 3.59933 23.7984 3.29909 23.732C2.85978 23.7061 2.50362 23.8796 2.23316 24.2194ZM29.9525 24.1877C29.7575 24.4822 29.7244 24.7792 29.7831 25.124C29.8936 25.4692 30.1113 25.6706 30.4226 25.8459C30.7241 25.9692 30.9759 25.9388 31.2842 25.834C31.5774 25.6363 31.8122 25.3979 31.9251 25.0591C31.951 24.717 31.9139 24.5063 31.7304 24.2153C31.453 23.8941 31.2526 23.7806 30.8338 23.7325C30.4699 23.7436 30.1904 23.9183 29.9525 24.1877ZM16.4437 27.0533C16.3753 27.0774 16.3068 27.1014 16.2363 27.1262C16.163 27.1523 16.0897 27.1783 16.0142 27.2052C14.6173 27.6854 13.1975 28.0155 11.7383 28.2397C11.7735 28.5609 11.9208 28.7851 12.0913 29.0511C12.1203 29.0967 12.1493 29.1424 12.1791 29.1894C13.1147 30.6415 14.3817 32.0914 16.1418 32.4976C17.4058 32.6585 18.5284 32.436 19.5764 31.6809C19.7368 31.5545 19.8922 31.4239 20.0467 31.2904C20.0912 31.2545 20.1357 31.2186 20.1816 31.1817C20.5577 30.8715 20.8532 30.5069 21.1502 30.1221C21.1937 30.0658 21.2372 30.0096 21.282 29.9517C21.539 29.6091 21.7713 29.2542 21.994 28.8888C22.0328 28.8258 22.0328 28.8258 22.0723 28.7614C22.219 28.518 22.219 28.518 22.2536 28.2397C22.1864 28.229 22.1864 28.229 22.1177 28.2181C20.5752 27.9691 19.0501 27.6385 17.5874 27.0767C17.5402 27.0588 17.4929 27.041 17.4443 27.0226C17.4043 27.0069 17.3644 26.9912 17.3232 26.975C17.008 26.8953 16.7442 26.9449 16.4437 27.0533Z" fill="#8A8A8A"/>
<path d="M14.3261 13.1421C14.5442 13.2028 14.6408 13.3368 14.7891 13.5052C14.8751 13.6705 14.949 13.8281 15.0188 13.9999C15.0498 14.0735 15.0498 14.0735 15.0815 14.1486C15.1498 14.3111 15.2169 14.474 15.284 14.637C15.3319 14.7518 15.3799 14.8665 15.428 14.9812C15.5569 15.2895 15.6847 15.5982 15.8122 15.9071C15.8937 16.1042 15.9753 16.3013 16.0571 16.4984C16.3463 17.1953 16.6354 17.8923 16.9212 18.5906C17.0329 18.8634 17.146 19.1354 17.2627 19.4061C17.284 19.4562 17.3054 19.5063 17.3274 19.558C17.367 19.6507 17.4072 19.7433 17.448 19.8356C17.5577 20.0941 17.6082 20.2998 17.5802 20.5803C17.4332 20.881 17.4332 20.881 17.2556 20.9698C16.8867 21.006 16.8867 21.006 16.7364 20.9698C16.4813 20.7476 16.3484 20.5475 16.2239 20.2347C16.1772 20.1185 16.1772 20.1185 16.1295 20C16.1139 19.9601 16.0983 19.9202 16.0823 19.8791C16.0343 19.7561 15.9851 19.6336 15.9358 19.5112C15.6978 18.9139 15.6978 18.9139 15.6978 18.7628C14.7339 18.7843 13.77 18.8057 12.7769 18.8277C12.5341 19.4351 12.5341 19.4351 12.2934 20.0433C12.2472 20.157 12.2472 20.157 12.2001 20.273C12.1691 20.3505 12.1382 20.428 12.1063 20.5078C11.9879 20.7289 11.8836 20.8353 11.6734 20.9698C11.388 21.0156 11.2686 21.0035 11.0284 20.8399C10.8605 20.5957 10.8573 20.4107 10.8945 20.1259C10.9568 19.9106 11.0432 19.7085 11.1329 19.5032C11.1582 19.4432 11.1835 19.3832 11.2096 19.3213C11.293 19.124 11.3777 18.9272 11.4625 18.7304C11.521 18.5927 11.5794 18.455 11.6377 18.3172C11.7598 18.029 11.8822 17.7409 12.005 17.453C12.1921 17.013 12.3759 16.5717 12.5588 16.1299C12.6029 16.0236 12.6029 16.0236 12.6479 15.9151C12.7622 15.6393 12.8764 15.3635 12.9905 15.0877C13.0692 14.8975 13.1482 14.7074 13.2272 14.5174C13.2501 14.4618 13.2731 14.4062 13.2967 14.3489C13.7889 13.1674 13.7889 13.1674 14.3261 13.1421ZM14.2049 15.3226C14.102 15.5579 13.9993 15.7932 13.8966 16.0285C13.8678 16.0943 13.839 16.1601 13.8094 16.2278C13.4653 16.8898 13.4653 16.8898 13.2962 17.5945C13.9174 17.5945 14.5385 17.5945 15.1785 17.5945C14.897 16.8272 14.5915 16.0739 14.2698 15.3226C14.2484 15.3226 14.227 15.3226 14.2049 15.3226Z" fill="#8A8A8A"/>
<path d="M19.2819 13.1354C19.3657 13.135 19.4495 13.1345 19.5358 13.134C19.7128 13.1333 19.8897 13.1337 20.0668 13.1349C20.2931 13.1364 20.5194 13.1347 20.7457 13.132C20.9623 13.13 21.1789 13.1308 21.3955 13.1314C21.4766 13.1304 21.5577 13.1294 21.6412 13.1284C22.1876 13.1357 22.1876 13.1357 22.3778 13.2657C22.4994 13.4058 22.5716 13.5314 22.6024 13.7151C22.5666 13.902 22.5351 14.0586 22.4239 14.2153C21.9671 14.514 21.4405 14.3492 20.8904 14.3492C20.8904 16.1485 20.8904 17.9478 20.8904 19.8016C21.2974 19.8016 21.7044 19.8016 22.1237 19.8016C22.5175 20.0378 22.5175 20.0378 22.5781 20.2559C22.5693 20.5017 22.5555 20.6556 22.4033 20.8522C22.2152 21.0001 22.1152 21.0031 21.8777 21.0046C21.7643 21.0061 21.7643 21.0061 21.6486 21.0077C21.5672 21.0074 21.4857 21.007 21.4019 21.0067C21.318 21.0071 21.2341 21.0075 21.1477 21.0079C20.9703 21.0086 20.793 21.0083 20.6156 21.0074C20.3887 21.0062 20.1619 21.0078 19.9351 21.0101C19.7181 21.0118 19.5012 21.0112 19.2842 21.0108C19.2029 21.0116 19.1216 21.0125 19.0379 21.0134C18.4114 21.0067 18.4114 21.0067 18.2104 20.8136C18.0375 20.5517 18.0552 20.4354 18.0993 20.1261C18.2207 19.9683 18.3123 19.8898 18.4888 19.8016C18.8958 19.8016 19.3028 19.8016 19.7221 19.8016C19.7221 18.0023 19.7221 16.203 19.7221 14.3492C19.3151 14.3492 18.9081 14.3492 18.4888 14.3492C18.1643 14.1545 18.1643 14.1545 18.0993 14.0246C18.0549 13.5729 18.0549 13.5729 18.2101 13.3371C18.4939 13.0656 18.9154 13.1334 19.2819 13.1354Z" fill="#8A8A8A"/>
</svg>
