<svg width="41" height="41" viewBox="0 0 41 41" fill="none" xmlns="http://www.w3.org/2000/svg">
<path d="M20.2753 0.369507C21.0259 0.369507 21.7659 0.410174 22.4953 0.491507C22.7563 0.520398 23.0092 0.600427 23.2393 0.727025C23.4694 0.853623 23.6724 1.02431 23.8366 1.22934C24.0007 1.43437 24.1229 1.66973 24.1961 1.92199C24.2693 2.17424 24.2922 2.43844 24.2633 2.69951C24.2344 2.96057 24.1543 3.2134 24.0278 3.44353C23.9012 3.67367 23.7305 3.87662 23.5254 4.0408C23.3204 4.20497 23.085 4.32715 22.8328 4.40037C22.5805 4.47358 22.3163 4.4964 22.0553 4.46751C18.7594 4.0988 15.4303 4.76339 12.5286 6.36935C9.62692 7.97532 7.29598 10.4433 5.8582 13.4319C4.42042 16.4205 3.94687 19.782 4.50305 23.0515C5.05923 26.321 6.61765 29.3369 8.96275 31.682C11.3078 34.0271 14.3237 35.5855 17.5932 36.1417C20.8627 36.6979 24.2243 36.2244 27.2129 34.7866C30.2015 33.3488 32.6695 31.0179 34.2754 28.1162C35.8814 25.2145 36.546 21.8854 36.1773 18.5895C36.1484 18.3284 36.1712 18.0642 36.2444 17.812C36.3176 17.5597 36.4398 17.3244 36.604 17.1193C36.9355 16.7053 37.418 16.4399 37.9453 16.3815C38.4725 16.3232 39.0014 16.4767 39.4154 16.8082C39.6205 16.9724 39.7912 17.1753 39.9178 17.4055C40.0443 17.6356 40.1244 17.8884 40.1533 18.1495C40.2333 18.8788 40.2739 19.6188 40.2753 20.3695C40.2753 31.4155 31.3213 40.3695 20.2753 40.3695C9.22927 40.3695 0.275269 31.4155 0.275269 20.3695C0.275269 9.32351 9.22927 0.369507 20.2753 0.369507ZM20.2113 12.1235C20.3431 12.637 20.2657 13.1817 19.996 13.6381C19.7264 14.0945 19.2866 14.4252 18.7733 14.5575C17.363 14.9269 16.1353 15.7968 15.3193 17.0049C14.5033 18.213 14.1548 19.6767 14.3387 21.1229C14.5226 22.5691 15.2264 23.899 16.3187 24.8644C17.4111 25.8298 18.8174 26.3648 20.2753 26.3695C21.6059 26.3701 22.8989 25.9283 23.951 25.1137C25.0031 24.2991 25.7546 23.1579 26.0873 21.8695C26.229 21.3662 26.5623 20.9385 27.0156 20.6779C27.4689 20.4173 28.0062 20.3445 28.5125 20.4753C29.0187 20.606 29.4537 20.9299 29.7241 21.3774C29.9945 21.8249 30.0789 22.3605 29.9593 22.8695C29.3457 25.2214 27.8969 27.2694 25.8836 28.6311C23.8702 29.9927 21.43 30.5748 19.0188 30.2685C16.6076 29.9623 14.3903 28.7887 12.7813 26.967C11.1722 25.1453 10.2814 22.8001 10.2753 20.3695C10.2749 18.1523 11.0115 15.9978 12.3691 14.2449C13.7267 12.4919 15.6285 11.2398 17.7753 10.6855C18.0296 10.6199 18.2944 10.6051 18.5545 10.6419C18.8146 10.6787 19.0649 10.7664 19.2911 10.8999C19.5174 11.0334 19.715 11.2102 19.8729 11.4202C20.0308 11.6301 20.1458 11.8691 20.2113 12.1235ZM33.2833 0.623507C33.6483 0.774865 33.9604 1.03098 34.18 1.35953C34.3996 1.68807 34.517 2.07432 34.5173 2.46951V6.12951H38.1753C38.5708 6.12959 38.9574 6.24693 39.2862 6.4667C39.615 6.68647 39.8713 6.9988 40.0226 7.3642C40.174 7.7296 40.2136 8.13166 40.1364 8.51957C40.0593 8.90748 39.8689 9.2638 39.5893 9.54351L32.5153 16.6095C32.1403 16.9846 31.6317 17.1954 31.1013 17.1955H26.2753L22.6193 20.8535C22.244 21.2288 21.735 21.4396 21.2043 21.4396C20.6735 21.4396 20.1646 21.2288 19.7893 20.8535C19.414 20.4782 19.2032 19.9692 19.2032 19.4385C19.2032 18.9078 19.414 18.3988 19.7893 18.0235L23.4473 14.3695V9.54151C23.4474 9.01112 23.6582 8.50249 24.0333 8.12751L31.1033 1.05551C31.383 0.775641 31.7394 0.585024 32.1274 0.50777C32.5155 0.430516 32.9177 0.470097 33.2833 0.621507M30.5173 7.29551L27.4473 10.3695V13.1975H30.2753L33.3473 10.1275H32.5173C31.9868 10.1275 31.4781 9.91679 31.1031 9.54172C30.728 9.16665 30.5173 8.65794 30.5173 8.12751V7.29551Z" fill="#005EFF"/>
</svg> 