<?xml version="1.0" encoding="UTF-8"?>
<svg width="41" height="43" viewBox="0 0 41 43" fill="none" xmlns="http://www.w3.org/2000/svg">
<path fillRule="evenodd" clipRule="evenodd" d="M32.2357 12.6992C32.2357 19.1968 26.9687 24.4639 20.471 24.4639C13.9734 24.4639 8.7063 19.1968 8.7063 12.6992C8.7063 6.20151 13.9734 0.934448 20.471 0.934448C26.9687 0.934448 32.2357 6.20151 32.2357 12.6992ZM29.8828 12.6992C29.8828 15.1953 28.8912 17.5892 27.1261 19.3543C25.3611 21.1193 22.9672 22.1109 20.471 22.1109C17.9748 22.1109 15.5809 21.1193 13.8159 19.3543C12.0508 17.5892 11.0592 15.1953 11.0592 12.6992C11.0592 10.203 12.0508 7.80908 13.8159 6.04403C15.5809 4.27898 17.9748 3.28739 20.471 3.28739C22.9672 3.28739 25.3611 4.27898 27.1261 6.04403C28.8912 7.80908 29.8828 10.203 29.8828 12.6992Z" fill="#8A8A8A"/>
<path d="M28.118 26.8168C27.9928 26.7883 27.8617 26.8033 27.7462 26.8594C27.6308 26.9154 27.5378 27.0091 27.4827 27.125L22.8239 40.4309V36.2286L22.1474 31.498C22.3634 31.4525 22.5622 31.3472 22.7211 31.194C22.8801 31.0409 22.9927 30.8462 23.0462 30.6321L23.6345 28.2792C23.6779 28.1058 23.6813 27.9248 23.6443 27.7499C23.6073 27.5751 23.531 27.4109 23.4211 27.27C23.3112 27.129 23.1707 27.0149 23.0101 26.9364C22.8495 26.8579 22.6732 26.817 22.4945 26.8168H18.4498C18.2711 26.8169 18.0947 26.8576 17.9341 26.936C17.7735 27.0144 17.6329 27.1283 17.5229 27.2691C17.4129 27.41 17.3364 27.574 17.2993 27.7488C17.2622 27.9236 17.2653 28.1046 17.3086 28.278L17.8968 30.6309C17.9502 30.8452 18.0627 31.0402 18.2217 31.1936C18.3806 31.3469 18.5796 31.4524 18.7957 31.498L18.118 36.2286V39.4003L13.4592 27.125C13.4041 27.0091 13.3111 26.9154 13.1957 26.8594C13.0802 26.8033 12.949 26.7883 12.8239 26.8168C12.3741 26.9254 11.9239 27.032 11.4733 27.1368C8.81212 27.7603 5.52271 28.5297 3.77448 29.678C1.70036 31.0392 0.470947 32.6439 0.470947 34.4639V42.1109H40.4709V34.4639C40.4709 32.6439 39.2415 31.0403 37.1674 29.678C35.4192 28.5297 32.1298 27.7603 29.4686 27.1368C28.9945 27.0262 28.5392 26.9203 28.118 26.8168Z" fill="#8A8A8A"/>
</svg> 