<svg width="27" height="27" viewBox="0 0 27 27" fill="none" xmlns="http://www.w3.org/2000/svg">
  <path d="M1.92615 1.06055H25.057C25.5732 1.06055 25.9916 1.47897 25.9916 1.99512V25.126C25.9916 25.6421 25.5732 26.0605 25.057 26.0605H1.92615C1.41 26.0605 0.991577 25.6421 0.991577 25.126V1.99512C0.991577 1.47897 1.41001 1.06055 1.92615 1.06055Z" fill="#005EFF" stroke="white"/>
  <path d="M19.4219 4.98621H19.4248C20.2682 4.98191 21.1111 5.01919 21.9512 5.09265V7.65125H20.373C19.4921 7.65125 18.8277 7.86073 18.4082 8.35925C18.0051 8.83841 17.9287 9.47289 17.9287 10.0624V13.0663H21.7451L21.3682 15.9901H17.9287V26.0585H14.8691V15.9901H11.4902V13.0663H14.8691V9.67371C14.8691 8.09591 15.3497 6.93783 16.124 6.17468C16.8516 5.45767 17.8873 5.04047 19.1631 4.99109L19.4219 4.98621Z" fill="white" stroke="white"/>
</svg>
