<svg width="41" height="42" viewBox="0 0 41 42" fill="none" xmlns="http://www.w3.org/2000/svg">
<path d="M11.1263 22.9166V37.8849C11.1263 38.7708 10.7744 39.6205 10.148 40.2469C9.52152 40.8734 8.67188 41.2253 7.78596 41.2253H3.81133C2.9254 41.2253 2.07577 40.8734 1.44932 40.2469C0.822879 39.6205 0.470947 38.7708 0.470947 37.8849V22.9166C0.47093 22.0287 0.822185 21.1769 1.44803 20.5471C2.07387 19.9173 2.92347 19.5607 3.81133 19.5551H7.78596C8.67382 19.5607 9.52341 19.9173 10.1493 20.5471C10.7751 21.1769 11.1264 22.0287 11.1263 22.9166ZM25.7986 13.2126V37.9483C25.7931 38.8362 25.4364 39.6858 24.8066 40.3116C24.1768 40.9375 23.325 41.2887 22.4371 41.2887H18.4836C17.5958 41.2887 16.7439 40.9375 16.1141 40.3116C15.4843 39.6858 15.1277 38.8362 15.1221 37.9483V13.2126C15.1221 12.3211 15.4763 11.4661 16.1067 10.8357C16.7371 10.2052 17.5921 9.85108 18.4836 9.85108H22.4371C23.3287 9.85108 24.1837 10.2052 24.8141 10.8357C25.4445 11.4661 25.7986 12.3211 25.7986 13.2126ZM40.4709 3.42402V37.9483C40.4654 38.8362 40.1087 39.6858 39.4789 40.3116C38.8491 40.9375 37.9973 41.2887 37.1094 41.2887H33.1559C32.2681 41.2887 31.4162 40.9375 30.7864 40.3116C30.1566 39.6858 29.8 38.8362 29.7944 37.9483V3.42402C29.7944 2.53249 30.1486 1.67747 30.779 1.04707C31.4094 0.416659 32.2644 0.0625 33.1559 0.0625H37.1094C38.001 0.0625 38.856 0.416659 39.4864 1.04707C40.1168 1.67747 40.4709 2.53249 40.4709 3.42402Z" fill="#949CA9"/>
</svg>
