<svg width="33" height="33" viewBox="0 0 33 33" fill="none" xmlns="http://www.w3.org/2000/svg">
<path d="M16.6721 0.774902C17.2673 0.774902 17.854 0.807146 18.4323 0.871634C18.6393 0.89454 18.8398 0.957993 19.0222 1.05837C19.2047 1.15875 19.3656 1.29408 19.4958 1.45665C19.626 1.61921 19.7228 1.80582 19.7809 2.00583C19.8389 2.20583 19.857 2.41531 19.8341 2.62231C19.8112 2.8293 19.7478 3.02976 19.6474 3.21223C19.547 3.3947 19.4117 3.55562 19.2491 3.68579C19.0865 3.81596 18.8999 3.91283 18.6999 3.97088C18.4999 4.02893 18.2904 4.04702 18.0834 4.02411C15.4702 3.73177 12.8307 4.25871 10.53 5.53204C8.22929 6.80538 6.38114 8.76218 5.24116 11.1318C4.10118 13.5014 3.72571 16.1667 4.16669 18.759C4.60767 21.3513 5.8433 23.7425 7.70268 25.6019C9.56206 27.4613 11.9533 28.6969 14.5456 29.1379C17.1379 29.5789 19.8032 29.2034 22.1728 28.0634C24.5424 26.9234 26.4992 25.0753 27.7725 22.7746C29.0459 20.4739 29.5728 17.8344 29.2805 15.2211C29.2576 15.0141 29.2756 14.8047 29.3337 14.6046C29.3917 14.4046 29.4886 14.218 29.6188 14.0555C29.8817 13.7272 30.2642 13.5167 30.6823 13.4705C31.1003 13.4242 31.5196 13.5459 31.8479 13.8088C32.0105 13.939 32.1458 14.0999 32.2462 14.2823C32.3466 14.4648 32.41 14.6653 32.4329 14.8723C32.4964 15.4505 32.5286 16.0373 32.5297 16.6325C32.5297 25.3906 25.4302 32.49 16.6721 32.49C7.914 32.49 0.814575 25.3906 0.814575 16.6325C0.814575 7.87433 7.914 0.774902 16.6721 0.774902ZM16.6214 10.0944C16.7259 10.5015 16.6645 10.9334 16.4507 11.2953C16.2369 11.6572 15.8882 11.9193 15.4812 12.0242C14.3631 12.3172 13.3897 13.0069 12.7427 13.9647C12.0957 14.9226 11.8193 16.0831 11.9651 17.2298C12.1109 18.3765 12.669 19.4309 13.5351 20.1963C14.4012 20.9618 15.5162 21.386 16.6721 21.3897C17.7271 21.3902 18.7524 21.0399 19.5866 20.394C20.4207 19.7481 21.0166 18.8433 21.2803 17.8218C21.3927 17.4227 21.6569 17.0836 22.0164 16.8769C22.3758 16.6703 22.8018 16.6127 23.2032 16.7163C23.6046 16.82 23.9495 17.0767 24.1639 17.4316C24.3783 17.7864 24.4452 18.2111 24.3503 18.6146C23.8639 20.4794 22.7152 22.1032 21.1188 23.1828C19.5225 24.2625 17.5877 24.724 15.6759 24.4811C13.7641 24.2383 12.0061 23.3078 10.7303 21.8634C9.45452 20.419 8.74822 18.5596 8.74335 16.6325C8.74308 14.8745 9.32707 13.1662 10.4035 11.7763C11.4799 10.3865 12.9878 9.39372 14.6899 8.95423C14.8916 8.90224 15.1016 8.8905 15.3078 8.91967C15.514 8.94884 15.7125 9.01834 15.8918 9.12422C16.0712 9.2301 16.2279 9.37027 16.3531 9.53673C16.4783 9.70319 16.5694 9.89269 16.6214 10.0944ZM26.9859 0.976293C27.2753 1.0963 27.5227 1.29937 27.6969 1.55987C27.871 1.82036 27.964 2.12661 27.9643 2.43994V5.34188H30.8646C31.1782 5.34194 31.4847 5.43498 31.7454 5.60923C32.0062 5.78348 32.2094 6.03112 32.3294 6.32083C32.4493 6.61055 32.4808 6.92934 32.4196 7.2369C32.3584 7.54447 32.2075 7.82699 31.9858 8.04876L26.3769 13.6512C26.0796 13.9486 25.6763 14.1158 25.2558 14.1159H21.4294L18.5306 17.0162C18.2331 17.3138 17.8295 17.4809 17.4087 17.4809C16.9879 17.4809 16.5843 17.3138 16.2868 17.0162C15.9892 16.7186 15.8221 16.3151 15.8221 15.8943C15.8221 15.4735 15.9892 15.0699 16.2868 14.7724L19.1871 11.8752V8.04717C19.1872 7.62664 19.3543 7.22336 19.6518 6.92605L25.2574 1.31882C25.4792 1.09692 25.7618 0.945781 26.0694 0.884528C26.3771 0.823275 26.696 0.854658 26.9859 0.974707M24.7928 6.26637L22.3586 8.70368V10.9459H24.6009L27.0366 8.5118H26.3785C25.958 8.5118 25.5546 8.34473 25.2572 8.04734C24.9598 7.74996 24.7928 7.34661 24.7928 6.92605V6.26637Z" fill="#005EFF"/>
</svg>
