<svg width="28" height="34" viewBox="0 0 28 34" fill="none" xmlns="http://www.w3.org/2000/svg">
<path d="M14.029 0.448242C10.0874 0.448242 6.89213 3.64353 6.89213 7.58512C6.89213 11.5267 10.0874 14.722 14.029 14.722C17.9706 14.722 21.1659 11.5267 21.1659 7.58512C21.1659 3.64353 17.9706 0.448242 14.029 0.448242ZM14.029 17.101C6.87942 17.101 1.06937 22.8351 0.946711 29.9558C0.938576 30.428 1.21063 30.8603 1.6399 31.0573C5.41311 32.7889 9.61027 33.7537 14.0295 33.7537C18.4484 33.7537 22.6451 32.7891 26.4181 31.0578C26.8474 30.8608 27.1194 30.4285 27.1113 29.9563C26.9889 22.8354 21.1788 17.101 14.029 17.101Z" fill="#005EFF"/>
</svg> 