<svg width="32" height="33" viewBox="0 0 32 33" fill="none" xmlns="http://www.w3.org/2000/svg">
<path d="M16.0289 0.774902C16.6241 0.774902 17.2108 0.807146 17.7891 0.871634C17.9961 0.89454 18.1966 0.957993 18.379 1.05837C18.5615 1.15875 18.7224 1.29408 18.8526 1.45665C18.9828 1.61921 19.0796 1.80582 19.1377 2.00583C19.1957 2.20583 19.2138 2.41531 19.1909 2.62231C19.168 2.8293 19.1046 3.02976 19.0042 3.21223C18.9038 3.3947 18.7685 3.55562 18.6059 3.68579C18.4433 3.81596 18.2567 3.91283 18.0567 3.97088C17.8567 4.02893 17.6473 4.04702 17.4403 4.02411C14.827 3.73177 12.1875 4.25871 9.88679 5.53204C7.5861 6.80538 5.73795 8.76218 4.59797 11.1318C3.45799 13.5014 3.08252 16.1667 3.5235 18.759C3.96448 21.3513 5.20012 23.7425 7.05949 25.6019C8.91887 27.4613 11.3101 28.6969 13.9024 29.1379C16.4947 29.5789 19.16 29.2034 21.5296 28.0634C23.8992 26.9234 25.856 25.0753 27.1293 22.7746C28.4027 20.4739 28.9296 17.8344 28.6373 15.2211C28.6144 15.0141 28.6325 14.8047 28.6905 14.6046C28.7486 14.4046 28.8454 14.218 28.9756 14.0555C29.2385 13.7272 29.621 13.5167 30.0391 13.4705C30.4571 13.4242 30.8764 13.5459 31.2047 13.8088C31.3673 13.939 31.5026 14.0999 31.603 14.2823C31.7034 14.4648 31.7668 14.6653 31.7897 14.8723C31.8532 15.4505 31.8854 16.0373 31.8865 16.6325C31.8865 25.3906 24.7871 32.49 16.0289 32.49C7.27081 32.49 0.171387 25.3906 0.171387 16.6325C0.171387 7.87433 7.27081 0.774902 16.0289 0.774902ZM15.9782 10.0944C16.0827 10.5015 16.0213 10.9334 15.8075 11.2953C15.5937 11.6572 15.245 11.9193 14.838 12.0242C13.7199 12.3172 12.7465 13.0069 12.0995 13.9647C11.4525 14.9226 11.1761 16.0831 11.3219 17.2298C11.4677 18.3765 12.0258 19.4309 12.8919 20.1963C13.758 20.9618 14.8731 21.386 16.0289 21.3897C17.0839 21.3902 18.1092 21.0399 18.9434 20.394C19.7776 19.7481 20.3734 18.8433 20.6371 17.8218C20.7495 17.4227 21.0137 17.0836 21.3732 16.8769C21.7326 16.6703 22.1586 16.6127 22.56 16.7163C22.9614 16.82 23.3063 17.0767 23.5207 17.4316C23.7351 17.7864 23.802 18.2111 23.7072 18.6146C23.2207 20.4794 22.072 22.1032 20.4756 23.1828C18.8793 24.2625 16.9445 24.724 15.0327 24.4811C13.1209 24.2383 11.3629 23.3078 10.0871 21.8634C8.81133 20.419 8.10503 18.5596 8.10016 16.6325C8.09989 14.8745 8.68388 13.1662 9.76031 11.7763C10.8367 10.3865 12.3446 9.39372 14.0467 8.95423C14.2484 8.90224 14.4584 8.8905 14.6646 8.91967C14.8708 8.94884 15.0693 9.01834 15.2486 9.12422C15.428 9.2301 15.5847 9.37027 15.7099 9.53673C15.8351 9.70319 15.9263 9.89269 15.9782 10.0944ZM26.3427 0.976293C26.6321 1.0963 26.8795 1.29937 27.0537 1.55987C27.2278 1.82036 27.3209 2.12661 27.3211 2.43994V5.34188H30.2214C30.535 5.34194 30.8415 5.43498 31.1023 5.60923C31.363 5.78348 31.5662 6.03112 31.6862 6.32083C31.8062 6.61055 31.8376 6.92934 31.7764 7.2369C31.7152 7.54447 31.5643 7.82699 31.3426 8.04876L25.7338 13.6512C25.4364 13.9486 25.0332 14.1158 24.6126 14.1159H20.7862L17.8874 17.0162C17.5899 17.3138 17.1863 17.4809 16.7655 17.4809C16.3447 17.4809 15.9411 17.3138 15.6436 17.0162C15.346 16.7186 15.1789 16.3151 15.1789 15.8943C15.1789 15.4735 15.346 15.0699 15.6436 14.7724L18.5439 11.8752V8.04717C18.544 7.62664 18.7112 7.22336 19.0086 6.92605L24.6142 1.31882C24.836 1.09692 25.1186 0.945781 25.4262 0.884528C25.7339 0.823275 26.0528 0.854658 26.3427 0.974707M24.1496 6.26637L21.7155 8.70368V10.9459H23.9577L26.3934 8.5118H25.7353C25.3148 8.5118 24.9114 8.34473 24.614 8.04734C24.3167 7.74996 24.1496 7.34661 24.1496 6.92605V6.26637Z" fill="#8A8A8A"/>
</svg>
