<?xml version="1.0" encoding="UTF-8"?>
<svg width="32" height="32" viewBox="0 0 32 32" fill="none" xmlns="http://www.w3.org/2000/svg">
<path d="M15.971 0.253662C16.5661 0.253662 17.1529 0.285906 17.7311 0.350393C17.9381 0.3733 18.1386 0.436753 18.3211 0.53713C18.5035 0.637506 18.6644 0.772841 18.7946 0.935406C18.9248 1.09797 19.0217 1.28458 19.0797 1.48459C19.1378 1.68459 19.1559 1.89407 19.1329 2.10107C19.11 2.30806 19.0466 2.50852 18.9462 2.69099C18.8458 2.87346 18.7105 3.03438 18.5479 3.16455C18.3854 3.29472 18.1988 3.39159 17.9988 3.44964C17.7987 3.50769 17.5893 3.52578 17.3823 3.50287C14.769 3.21053 12.1295 3.73747 9.82881 5.0108C7.52812 6.28414 5.67997 8.24094 4.53998 10.6105C3.4 12.9801 3.02454 15.6454 3.46552 18.2377C3.9065 20.8301 5.14213 23.2213 7.00151 25.0807C8.86088 26.94 11.2521 28.1757 13.8444 28.6166C16.4367 29.0576 19.102 28.6822 21.4716 27.5422C23.8412 26.4022 25.798 24.554 27.0714 22.2534C28.3447 19.9527 28.8716 17.3131 28.5793 14.6999C28.5564 14.4929 28.5745 14.2834 28.6325 14.0834C28.6906 13.8834 28.7874 13.6968 28.9176 13.5342C29.1805 13.2059 29.563 12.9955 29.9811 12.9492C30.3991 12.903 30.8184 13.0247 31.1468 13.2875C31.3093 13.4177 31.4447 13.5786 31.545 13.7611C31.6454 13.9436 31.7089 14.144 31.7318 14.351C31.7952 14.9293 31.8274 15.516 31.8285 16.1112C31.8285 24.8693 24.7291 31.9688 15.971 31.9688C7.21283 31.9688 0.113403 24.8693 0.113403 16.1112C0.113403 7.35309 7.21283 0.253662 15.971 0.253662ZM15.9202 9.57314C16.0247 9.98024 15.9633 10.4122 15.7495 10.774C15.5358 11.1359 15.187 11.3981 14.78 11.503C13.6619 11.7959 12.6885 12.4857 12.0415 13.4435C11.3945 14.4014 11.1181 15.5619 11.264 16.7086C11.4098 17.8552 11.9678 18.9097 12.8339 19.6751C13.7 20.4406 14.8151 20.8647 15.971 20.8685C17.026 20.8689 18.0512 20.5187 18.8854 19.8728C19.7196 19.2269 20.3154 18.322 20.5792 17.3005C20.6916 16.9015 20.9558 16.5623 21.3152 16.3557C21.6746 16.1491 22.1006 16.0914 22.502 16.1951C22.9035 16.2988 23.2483 16.5555 23.4627 16.9103C23.6771 17.2651 23.7441 17.6898 23.6492 18.0934C23.1627 19.9581 22.014 21.582 20.4177 22.6616C18.8213 23.7412 16.8865 24.2027 14.9747 23.9599C13.0629 23.7171 11.3049 22.7866 10.0291 21.3422C8.75335 19.8978 8.04705 18.0383 8.04218 16.1112C8.04191 14.3532 8.6259 12.645 9.70233 11.2551C10.7788 9.86522 12.2866 8.87248 13.9888 8.43299C14.1904 8.381 14.4004 8.36926 14.6066 8.39843C14.8128 8.4276 15.0113 8.4971 15.1907 8.60298C15.37 8.70886 15.5268 8.84903 15.6519 9.01549C15.7771 9.18195 15.8683 9.37145 15.9202 9.57314ZM26.2847 0.455053C26.5741 0.575062 26.8216 0.77813 26.9957 1.03863C27.1698 1.29912 27.2629 1.60537 27.2631 1.9187V4.82064H30.1635C30.477 4.8207 30.7836 4.91374 31.0443 5.08799C31.305 5.26224 31.5082 5.50988 31.6282 5.79959C31.7482 6.08931 31.7796 6.4081 31.7184 6.71566C31.6573 7.02322 31.5063 7.30575 31.2846 7.52752L25.6758 13.13C25.3785 13.4274 24.9752 13.5945 24.5546 13.5946H20.7282L17.8295 16.495C17.5319 16.7925 17.1283 16.9597 16.7075 16.9597C16.2867 16.9597 15.8832 16.7925 15.5856 16.495C15.2881 16.1974 15.1209 15.7938 15.1209 15.373C15.1209 14.9522 15.2881 14.5487 15.5856 14.2511L18.486 11.3539V7.52593C18.486 7.1054 18.6532 6.70212 18.9506 6.40481L24.5562 0.797576C24.778 0.575677 25.0606 0.42454 25.3683 0.363288C25.6759 0.302035 25.9949 0.333418 26.2847 0.453467M24.0916 5.74513L21.6575 8.18244V10.4247H23.8997L26.3354 7.99056H25.6774C25.2568 7.99056 24.8534 7.82349 24.5561 7.5261C24.2587 7.22872 24.0916 6.82537 24.0916 6.40481V5.74513Z" fill="#8A8A8A"/>
</svg> 