<svg width="41" height="41" viewBox="0 0 41 41" fill="none" xmlns="http://www.w3.org/2000/svg">
<path d="M31.0921 0.82251C30.5227 0.822598 29.959 0.936117 29.434 1.15644C28.9089 1.37676 28.433 1.69947 28.0341 2.10573L4.49036 25.5323C4.31623 25.7068 4.19021 25.9234 4.12455 26.161L0.523541 39.0217C0.455441 39.2658 0.453439 39.5235 0.517742 39.7686C0.582045 40.0136 0.710341 40.2371 0.889483 40.4163C1.06863 40.5954 1.29217 40.7237 1.53722 40.788C1.78227 40.8523 2.04001 40.8503 2.28403 40.7822L15.1448 37.1812C15.3824 37.1156 15.599 36.9895 15.7735 36.8154L39.2001 13.2717L39.2058 13.2688C39.6067 12.8704 39.9249 12.3966 40.142 11.8748C40.3592 11.3529 40.4709 10.7932 40.4709 10.228C40.4709 9.66275 40.3592 9.10309 40.142 8.58122C39.9249 8.05935 39.6067 7.58557 39.2058 7.18714L39.2001 7.18428L34.1529 2.10858C33.7539 1.70147 33.2776 1.37803 32.7521 1.1572C32.2265 0.936375 31.6622 0.822591 31.0921 0.82251Z" fill="#949CA9"/>
</svg>
