<svg width="33" height="35" viewBox="0 0 33 35" fill="none" xmlns="http://www.w3.org/2000/svg">
<path d="M19.7299 1.98176C20.0671 2.23108 20.375 2.5092 20.6792 2.79718C20.7353 2.84831 20.7914 2.89943 20.8491 2.9521C21.7035 3.76068 22.3134 4.76461 22.8862 5.78301C22.9354 5.86935 22.9846 5.95564 23.034 6.04189C23.0893 6.13866 23.0893 6.13866 23.1458 6.23738C23.2225 6.23585 23.2225 6.23585 23.3009 6.23429C25.3903 6.19836 27.5042 6.317 29.2838 7.53962C29.5621 7.69649 29.6532 7.66613 29.9613 7.60048C30.7377 7.54067 31.367 7.6751 31.973 8.18111C32.4249 8.64357 32.6229 9.18595 32.6469 9.82362C32.635 10.4705 32.4193 11.0225 31.9735 11.495C31.7398 11.6898 31.7398 11.6898 31.584 11.6898C31.5956 11.7424 31.6071 11.795 31.619 11.8493C31.8342 13.5037 30.9811 15.4597 30.1182 16.8285C30.077 16.8942 30.077 16.8942 30.0349 16.9612C29.9816 17.0448 29.9272 17.1277 29.8716 17.2097C29.7873 17.3352 29.7873 17.3352 29.7016 17.5316C29.7701 17.7534 29.8769 17.9446 29.9963 18.1427C30.8601 19.5997 31.5105 21.1146 31.6286 22.8217C31.6318 22.8669 31.635 22.912 31.6382 22.9585C31.6499 23.1626 31.6493 23.3073 31.584 23.5033C31.6215 23.5195 31.659 23.5357 31.6976 23.5525C32.1042 23.777 32.3691 24.1704 32.5252 24.5986C32.6974 25.2018 32.6829 25.7817 32.4278 26.3593C32.0992 26.9243 31.6231 27.3477 31.0001 27.5505C30.578 27.6416 30.1437 27.6397 29.726 27.5317C29.4107 27.5259 29.2431 27.6793 28.9879 27.854C27.5567 28.7938 25.7732 28.9484 24.1113 28.9922C24.0111 28.995 23.9108 28.9978 23.8106 29.0007C23.5674 29.0075 23.3241 29.0141 23.0809 29.0206C23.047 29.0882 23.0131 29.1558 22.9782 29.2254C21.9649 31.2124 20.4761 33.1254 18.3425 33.9537C18.2704 33.9819 18.1982 34.0101 18.1239 34.0391C16.8271 34.4611 15.3758 34.2965 14.168 33.7062C13.4898 33.3568 12.9239 32.9201 12.3708 32.3959C12.31 32.34 12.2492 32.2841 12.1865 32.2265C11.224 31.3222 10.553 30.1947 9.96919 29.0206C9.88256 29.0191 9.88256 29.0191 9.79419 29.0177C7.55963 28.9769 7.55963 28.9769 6.46408 28.7609C6.41777 28.752 6.37146 28.743 6.32374 28.7338C5.39851 28.5481 4.56587 28.1798 3.7673 27.6823C3.50888 27.5367 3.37082 27.5155 3.08879 27.5926C2.44447 27.6465 1.88634 27.5917 1.35374 27.2039C0.807775 26.7369 0.474091 26.2633 0.413312 25.5416C0.390368 24.8619 0.555757 24.3352 1.01169 23.8278C1.09541 23.7642 1.09541 23.7642 1.18081 23.6993C1.41793 23.4003 1.4034 23.0964 1.42955 22.7244C1.58851 21.0394 2.1978 19.55 3.07029 18.1097C3.11983 18.0253 3.16929 17.9407 3.21861 17.8562C3.252 17.8003 3.28538 17.7445 3.31978 17.687C3.36522 17.4406 3.22989 17.2855 3.09691 17.0894C3.04158 17.0026 2.98657 16.9157 2.93185 16.8285C2.9037 16.7839 2.87556 16.7392 2.84656 16.6932C2.01976 15.3347 1.53174 13.8348 1.41746 12.2533C1.39532 11.8528 1.39532 11.8528 1.18284 11.5323C1.12636 11.4986 1.06989 11.4649 1.01169 11.4301C0.525153 10.7934 0.35386 10.216 0.427511 9.41794C0.552281 8.85012 0.830216 8.35297 1.29922 8.0016C1.88599 7.63242 2.40335 7.56385 3.08879 7.60048C3.20527 7.6306 3.20527 7.6306 3.32409 7.66133C3.63675 7.66712 3.79655 7.51655 4.04976 7.34337C5.7841 6.23662 7.91841 6.1978 9.90428 6.23738C9.96553 6.12442 9.96553 6.12442 10.028 6.00918C10.658 4.85556 11.3475 3.77247 12.3059 2.86209C12.3585 2.80896 12.411 2.75583 12.4652 2.70109C14.4841 0.703865 17.3706 0.394119 19.7299 1.98176ZM13.4743 3.38137C13.425 3.42203 13.3757 3.4627 13.325 3.50459C12.5798 4.13525 12.0362 4.95202 11.5311 5.77896C11.505 5.82123 11.4789 5.86351 11.452 5.90706C11.3031 6.1519 11.3031 6.1519 11.2674 6.43211C11.3122 6.43922 11.3571 6.44633 11.4033 6.45366C12.9354 6.70101 14.4739 7.01264 15.9165 7.60083C16.5258 7.83668 17.0253 7.64276 17.6163 7.43009C18.9739 6.96126 20.3643 6.65002 21.7827 6.43211C21.7475 6.11093 21.6002 5.88666 21.4297 5.62074C21.4008 5.57513 21.3719 5.52952 21.342 5.48252C21.059 5.04302 20.7506 4.62947 20.4196 4.22519C20.3738 4.16863 20.3281 4.11206 20.2809 4.05379C19.522 3.16165 18.3666 2.29991 17.1741 2.14809C15.7283 2.03484 14.5755 2.42585 13.4743 3.38137ZM4.5168 8.4443C4.58533 8.65675 4.6565 8.85466 4.7521 9.05688C4.93996 9.55882 4.92036 10.1802 4.73587 10.6796C4.42208 11.3366 4.0123 11.6834 3.34438 11.9697C3.08794 12.0297 2.83167 12.0571 2.56952 12.0792C2.71576 13.5395 3.17111 14.8485 3.86441 16.1371C3.88539 16.1761 3.90636 16.2151 3.92797 16.2553C4.00383 16.373 4.09018 16.4626 4.19225 16.558C4.2402 16.5014 4.28814 16.4448 4.33754 16.3866C4.98733 15.6223 5.66037 14.889 6.36672 14.1766C6.42294 14.1195 6.47916 14.0625 6.53709 14.0037C6.958 13.5822 7.39826 13.1488 7.90684 12.8334C8.06983 12.6846 8.07921 12.5583 8.11648 12.3427C8.13086 12.2641 8.14523 12.1856 8.16005 12.1046C8.16725 12.0629 8.17445 12.0211 8.18188 11.978C8.22046 11.7559 8.26321 11.5346 8.30589 11.3132C8.31452 11.2682 8.32316 11.2232 8.33205 11.1768C8.58344 9.88459 9.00237 8.64127 9.44991 7.40575C7.66661 7.3554 6.09283 7.58947 4.5168 8.4443ZM23.6002 7.40575C23.6194 7.46112 23.6387 7.51649 23.6585 7.57354C23.9934 8.54234 24.3222 9.50972 24.5697 10.5052C24.5881 10.579 24.6065 10.6529 24.6255 10.7289C24.7078 11.0716 24.7788 11.4116 24.8286 11.7605C24.9116 12.4934 24.9116 12.4934 25.3487 13.0569C25.4793 13.1429 25.6105 13.2281 25.7422 13.3125C25.8741 13.4253 26.0014 13.5385 26.1276 13.6573C26.1615 13.6889 26.1954 13.7204 26.2303 13.7529C27.0198 14.4932 27.8078 15.2441 28.4684 16.1036C28.5966 16.2565 28.7271 16.4072 28.8578 16.558C29.8203 15.4429 30.493 13.5489 30.4156 12.0792C30.3677 12.0744 30.3197 12.0695 30.2704 12.0645C29.664 11.9859 29.1219 11.8034 28.6996 11.3409C28.2272 10.7251 28.1501 10.1132 28.2087 9.35303C28.2601 9.16957 28.3227 9.00834 28.4052 8.83705C28.4671 8.70661 28.5031 8.58507 28.5333 8.4443C26.9572 7.58947 25.3835 7.3554 23.6002 7.40575ZM10.6832 7.53557C10.4338 7.98731 10.274 8.46392 10.1132 8.95213C10.0672 9.09146 10.0204 9.23049 9.9735 9.36951C9.57995 10.4436 9.57995 10.4436 9.44991 11.5599C9.73872 11.3999 10.0143 11.2297 10.2869 11.0435C11.7134 10.0691 13.2461 9.18712 14.8374 8.50921C14.7845 8.36732 14.7845 8.36732 14.6419 8.32809C14.5846 8.3118 14.5273 8.29551 14.4682 8.27873C14.4035 8.26029 14.3388 8.24185 14.2722 8.22285C14.2016 8.20356 14.1311 8.18426 14.0585 8.16438C13.9499 8.13443 13.9499 8.13443 13.8392 8.10387C12.8133 7.82717 11.7508 7.55892 10.6832 7.53557ZM21.1133 7.66944C21.0372 7.68361 20.9611 7.69778 20.8827 7.71237C19.5068 7.95095 19.5068 7.95095 18.2127 8.4443C18.351 8.58261 18.4594 8.63649 18.6361 8.71788C18.6964 8.74598 18.7566 8.77409 18.8187 8.80304C18.8838 8.83326 18.9489 8.86348 19.0159 8.89461C20.6054 9.64518 22.0997 10.5467 23.5352 11.5599C23.6556 11.2063 23.5099 10.8698 23.4176 10.5214C23.3875 10.4065 23.3875 10.4065 23.3568 10.2893C22.9968 8.85078 22.9968 8.85078 22.3669 7.53557C21.9458 7.48891 21.5262 7.59206 21.1133 7.66944ZM1.73863 9.30638C1.5688 9.54978 1.57233 9.77974 1.59588 10.067C1.71914 10.4446 1.88838 10.6563 2.24497 10.8459C2.54081 10.9446 2.8084 10.9716 3.09919 10.8543C3.41005 10.6771 3.62644 10.4774 3.73789 10.1319C3.79871 9.81044 3.76581 9.5555 3.60807 9.26784C3.4202 9.00195 3.20402 8.8629 2.89407 8.76885C2.36033 8.70443 2.0665 8.91396 1.73863 9.30638ZM29.4816 9.19557C29.2866 9.49007 29.2535 9.78706 29.3122 10.1319C29.4226 10.4771 29.6403 10.6785 29.9516 10.8538C30.2531 10.9771 30.505 10.9467 30.8132 10.8419C31.1065 10.6442 31.3413 10.4058 31.4542 10.067C31.48 9.72504 31.4493 9.51099 31.2595 9.22321C30.9812 8.94163 30.7753 8.78562 30.371 8.7445C30.0016 8.75063 29.7233 8.92196 29.4816 9.19557ZM16.1097 9.17605C16.0377 9.20784 15.9658 9.23962 15.8916 9.27237C15.8141 9.30702 15.7367 9.34167 15.6569 9.37737C15.6173 9.39507 15.5777 9.41277 15.5369 9.431C13.4501 10.3653 11.4762 11.4932 9.65275 12.8784C9.6072 12.913 9.56165 12.9476 9.51471 12.9833C9.182 13.234 9.182 13.234 9.02887 13.6148C9.02181 13.6833 9.01474 13.7518 9.00746 13.8224C8.99535 13.9374 8.99535 13.9374 8.983 14.0548C8.97509 14.1351 8.96718 14.2155 8.95904 14.2983C8.95088 14.3754 8.94272 14.4525 8.93431 14.532C8.83209 15.5269 8.78564 16.5158 8.78459 17.5154C8.78448 17.5707 8.78438 17.626 8.78426 17.683C8.78417 18.5203 8.81873 19.3506 8.89007 20.1848C8.89622 20.2577 8.89622 20.2577 8.90249 20.3321C8.92726 21.2346 8.92726 21.2346 9.24859 22.0398C9.30164 22.0783 9.35469 22.1167 9.40934 22.1564C9.50536 22.2274 9.50536 22.2274 9.60331 22.2999C9.68199 22.3549 9.76067 22.4098 9.83937 22.4647C9.93772 22.5358 10.036 22.607 10.1343 22.6782C10.79 23.1493 11.4607 23.59 12.1565 23.9994C12.2568 24.0585 12.357 24.1181 12.4569 24.178C13.1903 24.6176 13.9423 25.0096 14.7116 25.3816C14.7541 25.4022 14.7966 25.4228 14.8404 25.444C15.0437 25.5422 15.2475 25.6391 15.4525 25.7337C15.6009 25.8027 15.7483 25.8739 15.8944 25.9475C16.311 26.1512 16.311 26.1512 16.7563 26.1073C16.8534 26.0638 16.9494 26.0178 17.0443 25.9698C17.1579 25.9212 17.2715 25.8727 17.3851 25.8243C17.5097 25.7678 17.6341 25.7108 17.7583 25.6534C17.8257 25.6223 17.8932 25.5911 17.9627 25.559C21.3063 24.0976 21.3063 24.0976 23.9896 21.7507C24.0245 21.5731 24.0245 21.5731 24.0426 21.3706C24.0547 21.2556 24.0547 21.2556 24.0671 21.1383C24.075 21.0579 24.0829 20.9775 24.091 20.8947C24.0992 20.8176 24.1073 20.7405 24.1158 20.6611C24.218 19.6661 24.2644 18.6773 24.2655 17.6777C24.2656 17.6223 24.2657 17.567 24.2658 17.51C24.2659 16.6728 24.2313 15.8424 24.16 15.0083C24.1559 14.9596 24.1518 14.911 24.1476 14.861C24.1228 13.9584 24.1228 13.9584 23.8015 13.1533C23.7484 13.1148 23.6954 13.0763 23.6407 13.0366C23.5435 12.9648 23.5435 12.9648 23.4442 12.8916C23.3888 12.8529 23.3888 12.8529 23.3322 12.8134C23.1995 12.7204 23.0691 12.6246 22.9386 12.5285C19.6598 10.0771 19.6598 10.0771 16.1097 9.17605ZM7.32819 14.8391C7.29077 14.8763 7.25334 14.9136 7.21479 14.9519C7.13503 15.0313 7.05537 15.1108 6.97578 15.1904C6.85619 15.3099 6.7361 15.4288 6.61596 15.5477C6.21513 15.9466 5.83381 16.3484 5.48301 16.7927C5.31916 16.9998 5.14604 17.1983 4.97243 17.3972C4.88986 17.5303 4.88986 17.5303 4.93719 17.6835C5.06676 17.9097 5.22457 18.0956 5.39713 18.2902C5.4288 18.3267 5.46047 18.3631 5.4931 18.4007C5.59965 18.5228 5.70724 18.6439 5.81499 18.7649C5.88055 18.8392 5.88055 18.8392 5.94744 18.915C6.31197 19.325 6.692 19.7166 7.08072 20.1036C7.13946 20.1626 7.1982 20.2216 7.25871 20.2824C7.3423 20.3659 7.3423 20.3659 7.42758 20.451C7.47791 20.5013 7.52824 20.5515 7.58009 20.6033C7.67862 20.7195 7.67862 20.7195 7.76227 20.7122C7.75524 20.5977 7.75524 20.5977 7.74807 20.4809C7.64016 18.4901 7.64007 16.4709 7.76227 14.4809C7.60938 14.4809 7.43675 14.7308 7.32819 14.8391ZM25.2878 14.4809C25.2898 14.517 25.2917 14.5532 25.2938 14.5905C25.3992 16.6262 25.3985 18.6767 25.2878 20.7122C25.6731 20.3921 26.0292 20.0482 26.3831 19.6939C26.4409 19.6361 26.4987 19.5782 26.5583 19.5186C26.9406 19.1327 27.2957 18.7431 27.6245 18.3105C27.723 18.1873 27.8217 18.0642 27.9207 17.9414C27.9951 17.8481 28.0695 17.7548 28.1438 17.6614C28.0477 17.3571 27.8691 17.1458 27.661 16.9109C27.6085 16.8508 27.6085 16.8508 27.555 16.7895C27.4489 16.6686 27.3421 16.5483 27.2351 16.4282C27.1793 16.365 27.1235 16.3018 27.066 16.2367C26.6887 15.8173 26.2943 15.416 25.8963 15.0164C25.8439 14.9637 25.7915 14.911 25.7376 14.8567C25.6887 14.808 25.6399 14.7593 25.5895 14.7091C25.5455 14.6651 25.5014 14.6211 25.456 14.5758C25.3681 14.4736 25.3681 14.4736 25.2878 14.4809ZM4.12734 18.6351C3.34541 19.9684 2.56952 21.5237 2.56952 23.1138C2.62215 23.1187 2.67478 23.1235 2.729 23.1285C3.35919 23.2034 3.91061 23.3716 4.35047 23.8522C4.82286 24.4679 4.9 25.0798 4.84135 25.84C4.78993 26.0235 4.72738 26.1847 4.64485 26.356C4.58298 26.4864 4.54699 26.608 4.5168 26.7487C6.09283 27.6036 7.66661 27.8376 9.44991 27.7873C9.41809 27.6964 9.41809 27.6964 9.38562 27.6037C9.01663 26.5452 8.65749 25.4894 8.40731 24.3958C8.389 24.3158 8.37069 24.2357 8.35183 24.1533C8.27977 23.8273 8.21294 23.5037 8.17125 23.1724C8.11485 22.7274 8.06154 22.4483 7.70142 22.1523C7.57071 22.0611 7.43953 21.9705 7.3079 21.8805C6.79195 21.4436 6.31505 20.9607 5.83527 20.485C5.77822 20.4288 5.72116 20.3726 5.66238 20.3147C5.27389 19.9267 4.92357 19.5187 4.58171 19.0894C4.45436 18.9353 4.32512 18.7845 4.19225 18.6351C4.17083 18.6351 4.14941 18.6351 4.12734 18.6351ZM28.8578 18.6351C28.8052 18.6963 28.7526 18.7576 28.6983 18.8207C26.3962 21.4936 26.3962 21.4936 25.1876 22.3177C24.9944 22.4958 24.972 22.5935 24.9295 22.8499C24.9157 22.9272 24.9019 23.0046 24.8876 23.0843C24.8737 23.1676 24.8599 23.251 24.8456 23.3369C24.8136 23.5143 24.7802 23.6914 24.7465 23.8684C24.7379 23.9136 24.7293 23.9588 24.7205 24.0054C24.4708 25.2973 24.0537 26.5544 23.6002 27.7873C25.3168 27.8347 27.0423 27.6684 28.5333 26.7487C28.4647 26.5363 28.3936 26.3384 28.298 26.1362C28.103 25.6189 28.1243 24.9271 28.3325 24.4153C28.6531 23.8142 29.0883 23.4844 29.7097 23.2234C29.9448 23.1671 30.1752 23.1387 30.4156 23.1138C30.4496 21.7422 29.9093 19.7371 28.9461 18.7171C28.917 18.69 28.8878 18.663 28.8578 18.6351ZM9.44991 23.6331C9.48789 24.1305 9.60329 24.5868 9.74201 25.0652C9.77596 25.1833 9.77596 25.1833 9.81061 25.3038C10.0981 26.5594 10.0981 26.5594 10.6832 27.6575C11.2777 27.651 11.8564 27.5418 12.4357 27.4181C12.5169 27.401 12.598 27.3839 12.6816 27.3663C13.1934 27.2561 13.7006 27.134 14.2045 26.9922C14.2617 26.9762 14.3188 26.9602 14.3777 26.9438C14.5106 26.9047 14.6418 26.8598 14.7725 26.8137C14.8046 26.7494 14.8046 26.7494 14.8374 26.6838C14.7885 26.6611 14.7397 26.6383 14.6893 26.6148C13.5573 26.0847 12.4649 25.519 11.3972 24.8664C11.3464 24.8356 11.2957 24.8048 11.2434 24.773C10.7055 24.446 10.1827 24.1022 9.66924 23.7381C9.53699 23.627 9.53699 23.627 9.44991 23.6331ZM23.5352 23.6331C23.4955 23.6601 23.4558 23.6872 23.4149 23.715C21.7755 24.8281 20.0585 25.939 18.2127 26.6838C18.2655 26.8257 18.2655 26.8257 18.4082 26.8649C18.4655 26.8812 18.5228 26.8975 18.5819 26.9143C18.6465 26.9328 18.7112 26.9512 18.7779 26.9702C18.8484 26.9895 18.9189 27.0088 18.9916 27.0287C19.0639 27.0486 19.1363 27.0686 19.2108 27.0892C20.2368 27.3659 21.2992 27.6341 22.3669 27.6575C22.6183 27.1953 22.783 26.712 22.947 26.2132C22.9612 26.1704 22.9754 26.1276 22.99 26.0835C23.1699 25.5388 23.3408 24.9925 23.4825 24.4363C23.5028 24.3581 23.5028 24.3581 23.5234 24.2783C23.5814 24.0379 23.6074 23.8692 23.5352 23.6331ZM1.76221 24.7406C1.60537 25.0355 1.57332 25.2477 1.59588 25.5804C1.71829 25.9332 1.94431 26.1495 2.24497 26.3593C2.56952 26.4675 2.84776 26.4616 3.16182 26.3268C3.45323 26.1653 3.61899 25.9554 3.73789 25.6453C3.80453 25.302 3.76259 25.0021 3.56852 24.7089C3.36628 24.48 3.12838 24.3196 2.82814 24.2533C2.38884 24.2273 2.03267 24.4008 1.76221 24.7406ZM29.4816 24.7089C29.2866 25.0034 29.2535 25.3004 29.3122 25.6453C29.4226 25.9905 29.6403 26.1918 29.9516 26.3671C30.2531 26.4905 30.505 26.46 30.8132 26.3552C31.1065 26.1576 31.3413 25.9191 31.4542 25.5804C31.48 25.2382 31.4429 25.0276 31.2595 24.7366C30.9821 24.4154 30.7816 24.3018 30.3629 24.2538C29.999 24.2648 29.7195 24.4396 29.4816 24.7089ZM15.9728 27.5746C15.9043 27.5986 15.8359 27.6226 15.7653 27.6474C15.6921 27.6735 15.6188 27.6996 15.5433 27.7264C14.1463 28.2067 12.7266 28.5367 11.2674 28.7609C11.3026 29.0821 11.4498 29.3064 11.6203 29.5723C11.6493 29.618 11.6783 29.6636 11.7082 29.7107C12.6438 31.1628 13.9108 32.6127 15.6708 33.0188C16.9348 33.1798 18.0575 32.9573 19.1054 32.2021C19.2659 32.0758 19.4212 31.9452 19.5758 31.8117C19.6203 31.7758 19.6648 31.7399 19.7107 31.7029C20.0867 31.3927 20.3822 31.0282 20.6792 30.6433C20.7227 30.5871 20.7663 30.5308 20.8111 30.4729C21.068 30.1303 21.3004 29.7755 21.5231 29.41C21.5618 29.347 21.5618 29.347 21.6014 29.2827C21.748 29.0392 21.748 29.0392 21.7827 28.7609C21.7154 28.7503 21.7154 28.7503 21.6468 28.7394C20.1043 28.4904 18.5791 28.1597 17.1164 27.5979C17.0692 27.5801 17.022 27.5623 16.9733 27.5439C16.9334 27.5282 16.8934 27.5124 16.8522 27.4962C16.537 27.4166 16.2732 27.4662 15.9728 27.5746Z" fill="#005EFF"/>
<path d="M13.8552 13.6633C14.0733 13.7241 14.1699 13.858 14.3181 14.0264C14.4042 14.1918 14.4781 14.3494 14.5479 14.5211C14.5789 14.5947 14.5789 14.5947 14.6106 14.6698C14.6788 14.8323 14.746 14.9953 14.8131 15.1583C14.861 15.273 14.909 15.3878 14.9571 15.5025C15.0859 15.8108 15.2137 16.1195 15.3413 16.4283C15.4227 16.6255 15.5044 16.8226 15.5862 17.0196C15.8753 17.7166 16.1645 18.4135 16.4503 19.1119C16.562 19.3846 16.675 19.6567 16.7917 19.9274C16.8131 19.9775 16.8344 20.0276 16.8564 20.0792C16.8961 20.172 16.9362 20.2645 16.977 20.3568C17.0867 20.6153 17.1372 20.821 17.1092 21.1015C16.9622 21.4022 16.9622 21.4022 16.7847 21.491C16.4157 21.5273 16.4157 21.5273 16.2654 21.491C16.0103 21.2689 15.8775 21.0687 15.753 20.7559C15.7062 20.6398 15.7062 20.6398 15.6585 20.5213C15.643 20.4814 15.6274 20.4415 15.6113 20.4003C15.5633 20.2773 15.5142 20.1549 15.4648 20.0324C15.2269 19.4351 15.2269 19.4351 15.2269 19.2841C14.263 19.3055 13.2991 19.3269 12.3059 19.349C12.0632 19.9564 12.0632 19.9564 11.8225 20.5646C11.7763 20.6783 11.7763 20.6783 11.7291 20.7942C11.6982 20.8717 11.6673 20.9492 11.6354 21.0291C11.5169 21.2502 11.4127 21.3566 11.2025 21.491C10.9171 21.5369 10.7976 21.5247 10.5575 21.3612C10.3896 21.117 10.3863 20.932 10.4236 20.6472C10.4859 20.4318 10.5723 20.2297 10.6619 20.0244C10.6872 19.9644 10.7125 19.9044 10.7386 19.8426C10.8221 19.6452 10.9068 19.4484 10.9915 19.2516C11.05 19.1139 11.1084 18.9762 11.1667 18.8385C11.2888 18.5502 11.4113 18.2622 11.534 17.9742C11.7211 17.5342 11.9049 17.0929 12.0879 16.6512C12.132 16.5448 12.132 16.5448 12.1769 16.4364C12.2912 16.1606 12.4054 15.8848 12.5195 15.6089C12.5983 15.4187 12.6772 15.2287 12.7563 15.0386C12.7792 14.983 12.8021 14.9274 12.8258 14.8702C13.318 13.6886 13.318 13.6886 13.8552 13.6633ZM13.734 15.8439C13.631 16.0791 13.5283 16.3144 13.4256 16.5498C13.3969 16.6155 13.3681 16.6813 13.3384 16.7491C12.9944 17.411 12.9944 17.411 12.8252 18.1157C13.4464 18.1157 14.0676 18.1157 14.7076 18.1157C14.426 17.3485 14.1206 16.5951 13.7989 15.8439C13.7774 15.8439 13.756 15.8439 13.734 15.8439Z" fill="#005EFF"/>
<path d="M18.811 13.6567C18.8947 13.6562 18.9785 13.6557 19.0648 13.6553C19.2418 13.6545 19.4188 13.6549 19.5958 13.6562C19.8222 13.6577 20.0484 13.6559 20.2748 13.6533C20.4914 13.6512 20.708 13.6521 20.9246 13.6526C21.0057 13.6516 21.0867 13.6506 21.1703 13.6496C21.7166 13.657 21.7166 13.657 21.9069 13.787C22.0284 13.9271 22.1006 14.0527 22.1315 14.2363C22.0957 14.4233 22.0642 14.5799 21.953 14.7366C21.4961 15.0353 20.9696 14.8704 20.4195 14.8704C20.4195 16.6697 20.4195 18.469 20.4195 20.3228C20.8265 20.3228 21.2335 20.3228 21.6528 20.3228C22.0466 20.5591 22.0466 20.5591 22.1071 20.7772C22.0984 21.023 22.0846 21.1769 21.9324 21.3734C21.7442 21.5214 21.6442 21.5244 21.4067 21.5258C21.2933 21.5274 21.2933 21.5274 21.1776 21.5289C21.0962 21.5286 21.0148 21.5283 20.9309 21.528C20.8471 21.5284 20.7632 21.5288 20.6768 21.5292C20.4994 21.5298 20.322 21.5295 20.1446 21.5286C19.9178 21.5275 19.691 21.529 19.4641 21.5313C19.2472 21.5331 19.0302 21.5324 18.8132 21.532C18.732 21.5329 18.6507 21.5337 18.5669 21.5346C17.9405 21.5279 17.9405 21.5279 17.7395 21.3349C17.5665 21.0729 17.5842 20.9566 17.6284 20.6474C17.7498 20.4896 17.8414 20.411 18.0179 20.3228C18.4248 20.3228 18.8318 20.3228 19.2511 20.3228C19.2511 18.5235 19.2511 16.7242 19.2511 14.8704C18.8442 14.8704 18.4372 14.8704 18.0179 14.8704C17.6933 14.6757 17.6933 14.6757 17.6284 14.5459C17.584 14.0941 17.584 14.0941 17.7392 13.8584C18.023 13.5868 18.4445 13.6546 18.811 13.6567Z" fill="#005EFF"/>
</svg>
