<svg width="12" height="11" viewBox="0 0 12 11" fill="none" xmlns="http://www.w3.org/2000/svg">
<path fill-rule="evenodd" clip-rule="evenodd" d="M1.40337 5.44272C1.40337 7.97332 3.23813 9.69752 5.29903 10.0542C5.35509 10.0639 5.40868 10.0845 5.45676 10.115C5.50483 10.1454 5.54644 10.185 5.57921 10.2315C5.61198 10.278 5.63527 10.3305 5.64775 10.3861C5.66023 10.4416 5.66165 10.499 5.65193 10.555C5.64221 10.6111 5.62155 10.6647 5.59112 10.7128C5.56069 10.7609 5.52109 10.8025 5.47458 10.8352C5.42807 10.868 5.37556 10.8913 5.32004 10.9038C5.26453 10.9162 5.20711 10.9177 5.15105 10.908C2.73102 10.489 0.537109 8.44885 0.537109 5.44272C0.537109 4.16495 1.11822 3.16069 1.79659 2.39752C2.28292 1.8505 2.83909 1.40573 3.28635 1.06572H1.92628C1.81604 1.06572 1.71031 1.02192 1.63236 0.943968C1.5544 0.866015 1.51061 0.760288 1.51061 0.650045C1.51061 0.539803 1.5544 0.434075 1.63236 0.356122C1.71031 0.278169 1.81604 0.234375 1.92628 0.234375H4.4203C4.53054 0.234375 4.63627 0.278169 4.71422 0.356122C4.79218 0.434075 4.83597 0.539803 4.83597 0.650045V3.14407C4.83597 3.25431 4.79218 3.36004 4.71422 3.43799C4.63627 3.51594 4.53054 3.55974 4.4203 3.55974C4.31006 3.55974 4.20433 3.51594 4.12638 3.43799C4.04842 3.36004 4.00463 3.25431 4.00463 3.14407V1.60941L4.0038 1.61107C3.52827 1.96855 2.948 2.40667 2.44504 2.97281C1.85063 3.64121 1.40337 4.4501 1.40337 5.44272ZM10.6379 5.77941C10.6379 3.27542 8.8422 1.56203 6.80791 1.17961C6.75121 1.16999 6.697 1.14917 6.64843 1.11838C6.59986 1.08758 6.55791 1.04742 6.52503 1.00024C6.49214 0.953063 6.46898 0.899806 6.4569 0.843581C6.44482 0.787356 6.44406 0.729287 6.45465 0.672763C6.46525 0.616239 6.487 0.562392 6.51863 0.514363C6.55026 0.466333 6.59114 0.425084 6.63888 0.393021C6.68662 0.360957 6.74027 0.338723 6.7967 0.327614C6.85312 0.316505 6.91119 0.316743 6.96753 0.328316C9.3568 0.77724 11.5042 2.80571 11.5042 5.77941C11.5042 7.05718 10.923 8.06061 10.2447 8.82461C9.75834 9.37164 9.20217 9.8164 8.75491 10.1564H10.115C10.2252 10.1564 10.331 10.2002 10.4089 10.2782C10.4869 10.3561 10.5307 10.4618 10.5307 10.5721C10.5307 10.6823 10.4869 10.7881 10.4089 10.866C10.331 10.944 10.2252 10.9878 10.115 10.9878H7.62096C7.51072 10.9878 7.40499 10.944 7.32704 10.866C7.24908 10.7881 7.20529 10.6823 7.20529 10.5721V8.07807C7.20529 7.96783 7.24908 7.8621 7.32704 7.78415C7.40499 7.70619 7.51072 7.6624 7.62096 7.6624C7.7312 7.6624 7.83693 7.70619 7.91488 7.78415C7.99284 7.8621 8.03663 7.96783 8.03663 8.07807V9.61189H8.03829C8.51299 9.25275 9.0941 8.81547 9.59622 8.2485C10.1906 7.58093 10.6379 6.77287 10.6379 5.77941Z" fill="#AAAAAA"/>
</svg>
