<svg width="33" height="32" viewBox="0 0 33 32" fill="none" xmlns="http://www.w3.org/2000/svg">
<path d="M16.6721 0.181885C17.2673 0.181885 17.854 0.214129 18.4323 0.278616C18.6393 0.301523 18.8398 0.364976 19.0222 0.465352C19.2047 0.565729 19.3656 0.701064 19.4958 0.863629C19.626 1.02619 19.7228 1.21281 19.7809 1.41281C19.8389 1.61281 19.857 1.82229 19.8341 2.02929C19.8112 2.23628 19.7478 2.43674 19.6474 2.61921C19.547 2.80168 19.4117 2.9626 19.2491 3.09277C19.0865 3.22294 18.8999 3.31981 18.6999 3.37786C18.4999 3.43591 18.2904 3.454 18.0834 3.4311C15.4702 3.13875 12.8307 3.66569 10.53 4.93903C8.22929 6.21236 6.38114 8.16916 5.24116 10.5388C4.10118 12.9084 3.72571 15.5736 4.16669 18.166C4.60767 20.7583 5.8433 23.1495 7.70268 25.0089C9.56206 26.8682 11.9533 28.1039 14.5456 28.5449C17.1379 28.9858 19.8032 28.6104 22.1728 27.4704C24.5424 26.3304 26.4992 24.4823 27.7725 22.1816C29.0459 19.8809 29.5728 17.2414 29.2805 14.6281C29.2576 14.4211 29.2756 14.2116 29.3337 14.0116C29.3917 13.8116 29.4886 13.625 29.6188 13.4625C29.8817 13.1341 30.2642 12.9237 30.6823 12.8774C31.1003 12.8312 31.5196 12.9529 31.8479 13.2158C32.0105 13.3459 32.1458 13.5069 32.2462 13.6893C32.3466 13.8718 32.41 14.0723 32.4329 14.2792C32.4964 14.8575 32.5286 15.4442 32.5297 16.0394C32.5297 24.7976 25.4302 31.897 16.6721 31.897C7.914 31.897 0.814575 24.7976 0.814575 16.0394C0.814575 7.28131 7.914 0.181885 16.6721 0.181885ZM16.6214 9.50137C16.7259 9.90847 16.6645 10.3404 16.4507 10.7023C16.2369 11.0641 15.8882 11.3263 15.4812 11.4312C14.3631 11.7241 13.3897 12.4139 12.7427 13.3717C12.0957 14.3296 11.8193 15.4901 11.9651 16.6368C12.1109 17.7834 12.669 18.8379 13.5351 19.6033C14.4012 20.3688 15.5162 20.793 16.6721 20.7967C17.7271 20.7971 18.7524 20.4469 19.5866 19.801C20.4207 19.1551 21.0166 18.2503 21.2803 17.2287C21.3927 16.8297 21.6569 16.4905 22.0164 16.2839C22.3758 16.0773 22.8018 16.0196 23.2032 16.1233C23.6046 16.227 23.9495 16.4837 24.1639 16.8385C24.3783 17.1934 24.4452 17.6181 24.3503 18.0216C23.8639 19.8864 22.7152 21.5102 21.1188 22.5898C19.5225 23.6694 17.5877 24.1309 15.6759 23.8881C13.7641 23.6453 12.0061 22.7148 10.7303 21.2704C9.45452 19.826 8.74822 17.9666 8.74335 16.0394C8.74308 14.2814 9.32707 12.5732 10.4035 11.1833C11.4799 9.79344 12.9878 8.8007 14.6899 8.36121C14.8916 8.30923 15.1016 8.29748 15.3078 8.32665C15.514 8.35582 15.7125 8.42532 15.8918 8.5312C16.0712 8.63708 16.2279 8.77725 16.3531 8.94371C16.4783 9.11018 16.5694 9.29967 16.6214 9.50137ZM26.9859 0.383276C27.2753 0.503284 27.5227 0.706353 27.6969 0.966848C27.871 1.22734 27.964 1.53359 27.9643 1.84693V4.74886H30.8646C31.1782 4.74893 31.4847 4.84196 31.7454 5.01621C32.0062 5.19046 32.2094 5.4381 32.3294 5.72782C32.4493 6.01753 32.4808 6.33632 32.4196 6.64389C32.3584 6.95145 32.2075 7.23397 31.9858 7.45574L26.3769 13.0582C26.0796 13.3556 25.6763 13.5227 25.2558 13.5228H21.4294L18.5306 16.4232C18.2331 16.7207 17.8295 16.8879 17.4087 16.8879C16.9879 16.8879 16.5843 16.7207 16.2868 16.4232C15.9892 16.1256 15.8221 15.7221 15.8221 15.3013C15.8221 14.8805 15.9892 14.4769 16.2868 14.1793L19.1871 11.2822V7.45416C19.1872 7.03362 19.3543 6.63035 19.6518 6.33303L25.2574 0.725799C25.4792 0.5039 25.7618 0.352763 26.0694 0.29151C26.3771 0.230257 26.696 0.26164 26.9859 0.38169M24.7928 5.67335L22.3586 8.11066V10.3529H24.6009L27.0366 7.91878H26.3785C25.958 7.91878 25.5546 7.75171 25.2572 7.45433C24.9598 7.15694 24.7928 6.7536 24.7928 6.33303V5.67335Z" fill="#005EFF"/>
</svg>
