<svg width="27" height="34" viewBox="0 0 27 34" fill="none" xmlns="http://www.w3.org/2000/svg">
<mask id="path-1-inside-1_178_438" fill="white">
<path fill-rule="evenodd" clip-rule="evenodd" d="M6.36308 7.58512C6.36308 3.64353 9.55837 0.448242 13.5 0.448242C17.4415 0.448242 20.6368 3.64353 20.6368 7.58512C20.6368 11.5267 17.4415 14.722 13.5 14.722C9.55837 14.722 6.36308 11.5267 6.36308 7.58512Z"/>
<path fill-rule="evenodd" clip-rule="evenodd" d="M0.417658 29.9558C0.540317 22.8351 6.35037 17.101 13.5 17.101C20.6497 17.101 26.4599 22.8354 26.5823 29.9563C26.5904 30.4285 26.3183 30.8608 25.889 31.0578C22.1161 32.7891 17.9193 33.7537 13.5005 33.7537C9.08121 33.7537 4.88405 32.7889 1.11085 31.0573C0.681573 30.8603 0.409523 30.428 0.417658 29.9558Z"/>
</mask>
<path d="M0.417658 29.9558L4.41706 30.0247L0.417658 29.9558ZM26.5823 29.9563L30.5817 29.8876L30.5817 29.8875L26.5823 29.9563ZM25.889 31.0578L27.5572 34.6934L27.5572 34.6934L25.889 31.0578ZM1.11085 31.0573L-0.55749 34.6928H-0.557488L1.11085 31.0573ZM13.5 0.448242V-3.55176C7.34923 -3.55176 2.36308 1.43439 2.36308 7.58512H6.36308H10.3631C10.3631 5.85267 11.7675 4.44824 13.5 4.44824V0.448242ZM20.6368 7.58512H24.6368C24.6368 1.43439 19.6507 -3.55176 13.5 -3.55176V0.448242V4.44824C15.2324 4.44824 16.6368 5.85267 16.6368 7.58512H20.6368ZM13.5 14.722V18.722C19.6507 18.722 24.6368 13.7358 24.6368 7.58512H20.6368H16.6368C16.6368 9.31756 15.2324 10.722 13.5 10.722V14.722ZM6.36308 7.58512H2.36308C2.36308 13.7358 7.34923 18.722 13.5 18.722V14.722V10.722C11.7675 10.722 10.3631 9.31756 10.3631 7.58512H6.36308ZM13.5 17.101V13.101C4.1642 13.101 -3.42157 20.5882 -3.58175 29.8869L0.417658 29.9558L4.41706 30.0247C4.5022 25.0821 8.53653 21.101 13.5 21.101V17.101ZM26.5823 29.9563L30.5817 29.8875C30.4218 20.5885 22.8359 13.101 13.5 13.101V17.101V21.101C18.4635 21.101 22.4979 25.0823 22.5829 30.025L26.5823 29.9563ZM25.889 31.0578L27.5572 34.6934C29.4301 33.834 30.6171 31.9479 30.5817 29.8876L26.5823 29.9563L22.5829 30.025C22.5637 28.9092 23.2065 27.8877 24.2208 27.4223L25.889 31.0578ZM13.5005 33.7537V37.7537C18.5066 37.7537 23.2715 36.6599 27.5572 34.6934L25.889 31.0578L24.2208 27.4223C20.9607 28.9182 17.332 29.7537 13.5005 29.7537V33.7537ZM1.11085 31.0573L-0.557488 34.6928C3.72852 36.6597 8.49381 37.7537 13.5005 37.7537V33.7537V29.7537C9.66861 29.7537 6.03959 28.9181 2.77918 27.4219L1.11085 31.0573ZM0.417658 29.9558L-3.58175 29.8869C-3.61724 31.9472 -2.43034 33.8334 -0.55749 34.6928L1.11085 31.0573L2.77919 27.4219C3.79348 27.8873 4.43629 28.9088 4.41706 30.0247L0.417658 29.9558Z" fill="#005EFF" mask="url(#path-1-inside-1_178_438)"/>
</svg> 