<svg width="32" height="32" viewBox="0 0 32 32" fill="none" xmlns="http://www.w3.org/2000/svg">
<path d="M16.1431 0.181885C16.7383 0.181885 17.325 0.214129 17.9033 0.278616C18.1103 0.301523 18.3107 0.364976 18.4932 0.465352C18.6757 0.565729 18.8366 0.701064 18.9667 0.863629C19.0969 1.02619 19.1938 1.21281 19.2518 1.41281C19.3099 1.61281 19.328 1.82229 19.3051 2.02929C19.2822 2.23628 19.2187 2.43674 19.1183 2.61921C19.018 2.80168 18.8826 2.9626 18.7201 3.09277C18.5575 3.22294 18.3709 3.31981 18.1709 3.37786C17.9709 3.43591 17.7614 3.454 17.5544 3.4311C14.9411 3.13875 12.3016 3.66569 10.0009 4.93903C7.70024 6.21236 5.85208 8.16916 4.7121 10.5388C3.57212 12.9084 3.19666 15.5736 3.63764 18.166C4.07862 20.7583 5.31425 23.1495 7.17363 25.0089C9.033 26.8682 11.4242 28.1039 14.0165 28.5449C16.6089 28.9858 19.2741 28.6104 21.6437 27.4704C24.0133 26.3304 25.9701 24.4823 27.2435 22.1816C28.5168 19.8809 29.0437 17.2414 28.7514 14.6281C28.7285 14.4211 28.7466 14.2116 28.8046 14.0116C28.8627 13.8116 28.9596 13.625 29.0897 13.4625C29.3526 13.1341 29.7352 12.9237 30.1532 12.8774C30.5713 12.8312 30.9906 12.9529 31.3189 13.2158C31.4814 13.3459 31.6168 13.5069 31.7171 13.6893C31.8175 13.8718 31.881 14.0723 31.9039 14.2792C31.9673 14.8575 31.9996 15.4442 32.0006 16.0394C32.0006 24.7976 24.9012 31.897 16.1431 31.897C7.38495 31.897 0.285522 24.7976 0.285522 16.0394C0.285522 7.28131 7.38495 0.181885 16.1431 0.181885ZM16.0923 9.50137C16.1968 9.90847 16.1354 10.3404 15.9217 10.7023C15.7079 11.0641 15.3592 11.3263 14.9522 11.4312C13.834 11.7241 12.8606 12.4139 12.2136 13.3717C11.5666 14.3296 11.2903 15.4901 11.4361 16.6368C11.5819 17.7834 12.1399 18.8379 13.006 19.6033C13.8721 20.3688 14.9872 20.793 16.1431 20.7967C17.1981 20.7971 18.2233 20.4469 19.0575 19.801C19.8917 19.1551 20.4875 18.2503 20.7513 17.2287C20.8637 16.8297 21.1279 16.4905 21.4873 16.2839C21.8467 16.0773 22.2728 16.0196 22.6742 16.1233C23.0756 16.227 23.4204 16.4837 23.6348 16.8385C23.8492 17.1934 23.9162 17.6181 23.8213 18.0216C23.3348 19.8864 22.1861 21.5102 20.5898 22.5898C18.9934 23.6694 17.0586 24.1309 15.1468 23.8881C13.235 23.6453 11.477 22.7148 10.2013 21.2704C8.92547 19.826 8.21916 17.9666 8.2143 16.0394C8.21403 14.2814 8.79802 12.5732 9.87445 11.1833C10.9509 9.79344 12.4587 8.8007 14.1609 8.36121C14.3626 8.30923 14.5725 8.29748 14.7787 8.32665C14.985 8.35582 15.1834 8.42532 15.3628 8.5312C15.5421 8.63708 15.6989 8.77725 15.8241 8.94371C15.9492 9.11018 16.0404 9.29967 16.0923 9.50137ZM26.4568 0.383276C26.7463 0.503284 26.9937 0.706353 27.1678 0.966848C27.3419 1.22734 27.435 1.53359 27.4352 1.84693V4.74886H30.3356C30.6492 4.74893 30.9557 4.84196 31.2164 5.01621C31.4771 5.19046 31.6803 5.4381 31.8003 5.72782C31.9203 6.01753 31.9517 6.33632 31.8905 6.64389C31.8294 6.95145 31.6784 7.23397 31.4567 7.45574L25.8479 13.0582C25.5506 13.3556 25.1473 13.5227 24.7268 13.5228H20.9003L18.0016 16.4232C17.704 16.7207 17.3005 16.8879 16.8797 16.8879C16.4589 16.8879 16.0553 16.7207 15.7577 16.4232C15.4602 16.1256 15.293 15.7221 15.293 15.3013C15.293 14.8805 15.4602 14.4769 15.7577 14.1793L18.6581 11.2822V7.45416C18.6582 7.03362 18.8253 6.63035 19.1227 6.33303L24.7283 0.725799C24.9501 0.5039 25.2327 0.352763 25.5404 0.29151C25.8481 0.230257 26.167 0.26164 26.4568 0.38169M24.2637 5.67335L21.8296 8.11066V10.3529H24.0718L26.5076 7.91878H25.8495C25.4289 7.91878 25.0256 7.75171 24.7282 7.45433C24.4308 7.15694 24.2637 6.7536 24.2637 6.33303V5.67335Z" fill="#005EFF"/>
</svg> 